<svg id="svg" version="1.1" xmlns="http://www.w3.org/2000/svg" xmlns:xlink="http://www.w3.org/1999/xlink" width="400" height="400" viewBox="0, 0, 400,400"><g id="svgg"><path id="path0" d="M232.400 22.800 C 232.400 23.020,231.763 23.200,230.985 23.200 C 229.636 23.200,225.683 27.087,146.373 106.400 L 63.177 189.600 33.388 189.600 C 13.796 189.600,3.600 189.737,3.600 190.000 C 3.600 190.220,3.322 190.400,2.982 190.400 C 2.642 190.400,1.877 190.887,1.282 191.482 L 0.200 192.563 0.093 222.906 C -0.023 255.695,-0.005 256.000,2.046 256.000 C 2.461 256.000,2.800 256.180,2.800 256.400 C 2.800 256.620,3.124 256.800,3.520 256.800 C 3.916 256.800,4.411 256.965,4.620 257.168 C 4.829 257.370,6.170 257.626,7.600 257.737 C 11.422 258.034,16.000 258.862,16.000 259.256 C 16.000 259.445,16.360 259.600,16.800 259.600 C 17.240 259.600,17.600 259.780,17.600 260.000 C 17.600 260.220,17.960 260.400,18.400 260.400 C 18.840 260.400,19.200 260.580,19.200 260.800 C 19.200 261.020,19.484 261.200,19.831 261.200 C 20.179 261.200,21.154 261.920,22.000 262.800 C 22.846 263.680,23.776 264.405,24.069 264.411 C 24.361 264.417,25.319 265.497,26.198 266.811 C 27.076 268.125,27.931 269.200,28.098 269.200 C 28.264 269.200,28.400 269.560,28.400 270.000 C 28.400 270.440,28.546 270.800,28.725 270.800 C 28.904 270.800,29.298 271.430,29.600 272.200 C 29.902 272.970,30.296 273.600,30.475 273.600 C 30.654 273.600,30.800 274.140,30.800 274.800 C 30.800 275.460,30.980 276.000,31.200 276.000 C 31.420 276.000,31.600 276.540,31.600 277.200 C 31.600 277.860,31.780 278.400,32.000 278.400 C 32.244 278.400,32.400 280.267,32.400 283.200 C 32.400 286.133,32.244 288.000,32.000 288.000 C 31.780 288.000,31.600 288.529,31.600 289.176 C 31.600 289.823,31.420 290.464,31.200 290.600 C 30.980 290.736,30.800 291.377,30.800 292.024 C 30.800 292.671,30.641 293.200,30.447 293.200 C 30.252 293.200,29.987 293.515,29.858 293.900 C 28.917 296.692,23.555 303.600,22.328 303.600 C 22.025 303.600,21.517 303.960,21.200 304.400 C 20.883 304.840,20.343 305.200,20.000 305.200 C 19.657 305.200,19.117 305.560,18.800 306.000 C 18.483 306.440,17.903 306.800,17.512 306.800 C 17.120 306.800,16.800 306.980,16.800 307.200 C 16.800 307.420,16.275 307.600,15.633 307.600 C 14.992 307.600,14.407 307.769,14.333 307.977 C 14.260 308.184,12.760 308.462,11.000 308.596 C 5.328 309.026,3.287 309.609,1.545 311.300 L -0.015 312.813 0.093 343.673 C 0.180 368.648,0.300 374.567,0.723 374.708 C 1.010 374.803,1.677 375.313,2.205 375.841 C 2.856 376.492,3.619 376.800,4.582 376.800 C 5.362 376.800,6.000 376.980,6.000 377.200 C 6.000 377.466,70.933 377.600,200.000 377.600 C 329.067 377.600,394.000 377.466,394.000 377.200 C 394.000 376.980,394.638 376.800,395.418 376.800 C 396.381 376.800,397.144 376.492,397.795 375.841 C 398.323 375.313,398.990 374.803,399.277 374.708 C 399.700 374.567,399.820 368.648,399.907 343.673 L 400.015 312.813 398.455 311.300 C 396.713 309.609,394.672 309.026,389.000 308.596 C 387.240 308.462,385.740 308.184,385.667 307.977 C 385.593 307.769,385.008 307.600,384.367 307.600 C 383.725 307.600,383.200 307.420,383.200 307.200 C 383.200 306.980,382.880 306.800,382.488 306.800 C 382.097 306.800,381.517 306.440,381.200 306.000 C 380.883 305.560,380.343 305.200,380.000 305.200 C 379.657 305.200,379.117 304.840,378.800 304.400 C 378.483 303.960,377.948 303.595,377.612 303.588 C 377.275 303.581,376.550 303.030,376.000 302.363 C 375.450 301.696,374.640 300.756,374.199 300.275 C 372.946 298.905,370.572 295.175,370.142 293.900 C 370.013 293.515,369.748 293.200,369.553 293.200 C 369.359 293.200,369.200 292.671,369.200 292.024 C 369.200 291.377,369.020 290.736,368.800 290.600 C 368.580 290.464,368.400 289.823,368.400 289.176 C 368.400 288.529,368.220 288.000,368.000 288.000 C 367.756 288.000,367.600 286.133,367.600 283.200 C 367.600 280.267,367.756 278.400,368.000 278.400 C 368.220 278.400,368.400 277.860,368.400 277.200 C 368.400 276.540,368.580 276.000,368.800 276.000 C 369.020 276.000,369.200 275.460,369.200 274.800 C 369.200 274.140,369.346 273.600,369.525 273.600 C 369.704 273.600,370.098 272.970,370.400 272.200 C 370.702 271.430,371.096 270.800,371.275 270.800 C 371.454 270.800,371.600 270.522,371.600 270.183 C 371.600 269.843,372.022 269.110,372.538 268.554 C 373.054 267.997,373.909 266.840,374.438 265.982 C 374.967 265.124,375.639 264.417,375.931 264.411 C 376.224 264.405,377.154 263.680,378.000 262.800 C 378.846 261.920,379.821 261.200,380.169 261.200 C 380.516 261.200,380.800 261.020,380.800 260.800 C 380.800 260.580,381.160 260.400,381.600 260.400 C 382.040 260.400,382.400 260.220,382.400 260.000 C 382.400 259.780,382.760 259.600,383.200 259.600 C 383.640 259.600,384.000 259.445,384.000 259.256 C 384.000 258.862,388.578 258.034,392.400 257.737 C 393.830 257.626,395.171 257.370,395.380 257.168 C 395.589 256.965,396.084 256.800,396.480 256.800 C 396.876 256.800,397.200 256.620,397.200 256.400 C 397.200 256.180,397.539 256.000,397.954 256.000 C 400.005 256.000,400.023 255.695,399.907 222.906 L 399.800 192.563 398.718 191.482 C 398.123 190.887,397.358 190.400,397.018 190.400 C 396.678 190.400,396.400 190.220,396.400 190.000 C 396.400 189.736,381.964 189.598,353.900 189.596 L 311.400 189.591 315.400 185.665 C 317.600 183.505,321.213 179.862,323.429 177.569 C 325.645 175.276,329.335 171.586,331.629 169.368 C 333.923 167.151,337.790 163.281,340.223 160.768 C 342.655 158.256,346.255 154.670,348.223 152.800 C 350.191 150.930,352.057 148.905,352.368 148.300 C 352.680 147.695,353.085 147.200,353.268 147.200 C 353.450 147.200,353.600 146.660,353.600 146.000 C 353.600 145.340,353.780 144.800,354.000 144.800 C 354.220 144.800,354.400 144.170,354.400 143.400 C 354.400 142.630,354.220 142.000,354.000 142.000 C 353.780 142.000,353.600 141.460,353.600 140.800 C 353.600 140.140,353.420 139.600,353.200 139.600 C 352.980 139.600,352.800 139.338,352.800 139.018 C 352.800 138.311,315.778 101.200,315.074 101.200 C 314.800 101.200,314.317 100.840,314.000 100.400 C 312.857 98.814,307.494 99.350,305.450 101.254 C 305.009 101.664,304.489 102.000,304.293 102.000 C 304.097 102.000,303.246 102.720,302.400 103.600 C 301.554 104.480,300.579 105.200,300.231 105.200 C 299.884 105.200,299.600 105.380,299.600 105.600 C 299.600 105.820,299.240 106.000,298.800 106.000 C 298.360 106.000,298.000 106.180,298.000 106.400 C 298.000 106.620,297.640 106.800,297.200 106.800 C 296.760 106.800,296.400 106.980,296.400 107.200 C 296.400 107.420,295.986 107.600,295.480 107.600 C 294.974 107.600,294.335 107.825,294.060 108.100 C 293.697 108.462,291.617 108.600,286.513 108.600 C 281.231 108.600,279.425 108.475,279.300 108.100 C 279.208 107.825,278.608 107.600,277.967 107.600 C 277.325 107.600,276.800 107.420,276.800 107.200 C 276.800 106.980,276.440 106.800,276.000 106.800 C 275.560 106.800,275.200 106.664,275.200 106.498 C 275.200 106.331,274.632 105.944,273.937 105.636 C 273.243 105.329,271.961 104.385,271.089 103.539 C 270.217 102.692,269.267 102.000,268.979 102.000 C 268.690 102.000,268.337 101.631,268.194 101.180 C 268.051 100.729,267.363 99.783,266.667 99.077 C 265.970 98.371,265.130 97.255,264.801 96.597 C 264.471 95.939,264.111 95.310,264.001 95.200 C 263.523 94.724,262.800 93.161,262.800 92.605 C 262.800 92.272,262.620 92.000,262.400 92.000 C 262.180 92.000,262.000 91.460,262.000 90.800 C 262.000 90.140,261.820 89.600,261.600 89.600 C 261.378 89.600,261.200 88.541,261.200 87.224 C 261.200 85.917,261.020 84.736,260.800 84.600 C 260.580 84.464,260.400 83.913,260.400 83.376 C 260.400 82.839,260.580 82.400,260.800 82.400 C 261.022 82.400,261.200 81.341,261.200 80.024 C 261.200 78.717,261.380 77.536,261.600 77.400 C 261.820 77.264,262.000 76.730,262.000 76.214 C 262.000 75.264,263.548 71.912,264.100 71.667 C 264.265 71.593,264.400 71.188,264.400 70.767 C 264.400 70.345,264.580 70.000,264.800 70.000 C 265.020 70.000,265.200 69.730,265.200 69.400 C 265.200 69.070,265.380 68.800,265.600 68.800 C 265.820 68.800,266.000 68.620,266.000 68.400 C 266.000 68.181,266.720 67.259,267.600 66.352 C 268.480 65.445,269.200 64.455,269.200 64.152 C 269.200 63.848,269.380 63.600,269.600 63.600 C 269.820 63.600,270.000 63.060,270.000 62.400 C 270.000 61.740,270.180 61.200,270.400 61.200 C 270.620 61.200,270.800 60.570,270.800 59.800 C 270.800 59.030,270.620 58.400,270.400 58.400 C 270.180 58.400,270.000 57.860,270.000 57.200 C 270.000 56.540,269.820 56.000,269.600 56.000 C 269.380 56.000,269.200 55.738,269.200 55.417 C 269.200 54.495,238.551 24.000,237.623 24.000 C 237.391 24.000,237.200 23.820,237.200 23.600 C 237.200 23.380,236.570 23.200,235.800 23.200 C 235.030 23.200,234.400 23.020,234.400 22.800 C 234.400 22.580,233.950 22.400,233.400 22.400 C 232.850 22.400,232.400 22.580,232.400 22.800 M243.897 49.697 C 254.470 60.264,254.450 60.238,253.251 61.938 C 246.223 71.896,245.168 88.252,250.780 100.248 C 260.728 121.512,287.331 129.539,307.200 117.273 L 309.800 115.668 323.700 129.532 L 337.601 143.397 314.302 166.698 L 291.003 190.000 280.568 190.000 C 274.829 190.000,270.010 189.877,269.860 189.727 C 269.710 189.577,273.255 185.752,277.739 181.227 C 286.516 172.369,286.781 171.968,286.173 168.500 C 285.925 167.081,214.282 94.439,210.226 91.493 C 208.802 90.458,205.500 90.306,203.762 91.194 C 203.123 91.521,180.464 113.886,153.408 140.894 L 104.217 190.000 93.708 190.000 C 87.929 190.000,83.200 189.865,83.200 189.700 C 83.200 189.245,232.941 39.600,233.397 39.600 C 233.615 39.600,238.341 44.144,243.897 49.697 M239.073 138.250 C 256.303 155.438,270.400 169.747,270.400 170.047 C 270.400 170.348,266.036 174.960,260.703 180.297 L 251.006 190.000 187.103 190.000 C 151.956 190.000,123.200 189.865,123.200 189.701 C 123.200 188.706,206.603 106.070,207.154 106.518 C 207.479 106.783,221.843 121.063,239.073 138.250 M66.800 212.567 C 66.800 224.455,66.017 223.200,73.436 223.200 L 79.586 223.200 79.693 213.300 L 79.800 203.400 233.304 203.299 L 386.807 203.199 386.704 223.685 L 386.600 244.170 385.200 244.517 C 374.049 247.277,364.119 254.246,359.646 262.451 C 356.947 267.403,356.400 268.542,356.400 269.217 C 356.400 269.622,356.241 270.051,356.048 270.170 C 355.854 270.290,355.602 270.796,355.488 271.294 C 355.373 271.792,354.968 273.280,354.586 274.600 C 353.719 277.603,353.532 288.470,354.302 291.100 C 354.576 292.035,355.003 293.565,355.252 294.500 C 355.925 297.032,357.223 299.948,359.639 304.354 C 360.824 306.515,365.380 311.832,367.306 313.301 C 368.090 313.899,368.979 314.636,369.281 314.939 C 371.180 316.837,379.193 320.747,382.878 321.573 C 383.877 321.797,385.170 322.161,385.751 322.381 L 386.807 322.783 386.704 343.091 L 386.600 363.400 360.000 363.400 L 333.400 363.400 333.200 350.200 L 333.000 337.000 326.705 336.890 L 320.411 336.780 320.305 350.090 L 320.200 363.400 200.800 363.509 C 135.130 363.569,80.995 363.521,80.500 363.402 C 79.666 363.201,79.600 362.965,79.600 360.182 L 79.600 357.180 73.300 357.290 L 67.000 357.400 66.800 360.400 L 66.600 363.400 40.000 363.400 L 13.400 363.400 13.400 343.062 L 13.400 322.724 17.600 321.451 C 26.128 318.868,32.649 314.451,38.043 307.600 C 40.252 304.795,43.600 298.794,43.600 297.639 C 43.600 297.266,43.749 296.789,43.930 296.580 C 44.112 296.371,44.493 295.390,44.777 294.400 C 45.061 293.410,45.487 292.074,45.724 291.430 C 46.428 289.520,46.253 277.417,45.483 274.800 C 45.128 273.590,44.723 272.150,44.585 271.600 C 44.305 270.489,44.064 269.868,42.840 267.104 C 42.378 266.062,42.000 265.109,42.000 264.986 C 42.000 264.661,38.239 259.169,37.215 258.000 C 31.100 251.017,25.287 247.360,16.600 245.033 L 13.400 244.176 13.296 223.688 L 13.193 203.200 39.996 203.200 L 66.800 203.200 66.800 212.567 M126.200 217.059 C 125.760 217.154,125.028 217.309,124.574 217.405 C 122.752 217.787,120.408 220.927,120.397 223.000 C 120.361 229.878,114.194 236.767,108.046 236.794 C 104.290 236.811,101.357 238.881,100.500 242.122 C 99.782 244.834,99.790 321.771,100.508 324.407 C 101.341 327.464,103.619 329.596,106.062 329.605 C 113.687 329.632,120.400 336.297,120.400 343.842 C 120.400 346.334,122.410 348.564,125.560 349.567 C 127.526 350.193,273.122 350.177,274.681 349.550 C 277.133 348.564,277.612 348.220,278.587 346.748 C 279.144 345.906,279.606 344.718,279.614 344.109 C 279.716 336.177,286.177 329.716,294.109 329.614 C 294.718 329.606,295.906 329.144,296.748 328.587 C 298.220 327.612,298.564 327.133,299.550 324.681 C 300.218 323.020,300.185 244.110,299.515 241.875 C 298.602 238.827,295.540 236.800,291.848 236.800 C 291.046 236.800,290.077 236.635,289.695 236.433 C 289.313 236.232,288.370 235.833,287.600 235.548 C 283.457 234.014,279.622 227.879,279.605 222.759 C 279.599 220.973,278.264 218.917,276.399 217.822 C 275.090 217.053,129.657 216.314,126.200 217.059 M320.582 217.304 C 320.475 217.581,320.436 223.476,320.494 230.404 L 320.600 243.000 326.000 243.115 C 328.970 243.179,331.805 243.130,332.300 243.008 L 333.200 242.785 333.200 230.272 C 333.200 221.074,333.073 217.633,332.720 217.280 C 332.025 216.585,320.849 216.607,320.582 217.304 M267.264 230.100 C 267.603 230.375,268.300 231.680,268.813 233.000 C 271.505 239.926,277.347 245.640,284.373 248.217 L 286.600 249.034 286.600 283.391 L 286.600 317.747 284.800 318.380 C 277.206 321.051,271.051 327.206,268.380 334.800 L 267.747 336.600 200.062 336.701 C 135.858 336.797,132.364 336.766,132.150 336.101 C 130.262 330.241,127.703 326.520,122.600 322.212 C 121.243 321.067,117.882 319.327,115.200 318.382 L 113.400 317.747 113.400 283.375 L 113.400 249.003 114.957 248.493 C 122.484 246.027,132.000 236.293,132.000 231.059 C 132.000 230.718,132.315 230.256,132.700 230.032 C 133.815 229.383,266.462 229.450,267.264 230.100 M66.982 237.304 C 66.875 237.581,66.836 243.476,66.894 250.404 L 67.000 263.000 73.300 263.110 L 79.600 263.220 79.600 250.010 L 79.600 236.800 73.387 236.800 C 68.762 236.800,67.126 236.929,66.982 237.304 M320.494 270.100 L 320.600 283.000 326.000 283.115 C 328.970 283.179,331.805 283.130,332.300 283.008 L 333.200 282.785 333.200 269.992 L 333.200 257.200 326.794 257.200 L 320.389 257.200 320.494 270.100 M67.043 277.433 C 66.909 277.781,66.800 283.627,66.800 290.425 L 66.800 302.785 67.700 303.008 C 68.195 303.130,71.030 303.179,74.000 303.115 L 79.400 303.000 79.505 289.900 L 79.611 276.800 73.448 276.800 C 68.198 276.800,67.250 276.894,67.043 277.433 M320.667 297.067 C 320.520 297.213,320.400 303.158,320.400 310.277 L 320.400 323.220 326.700 323.110 L 333.000 323.000 333.106 310.227 C 333.188 300.275,333.100 297.383,332.706 297.133 C 332.098 296.747,321.047 296.686,320.667 297.067 M67.290 317.270 C 66.924 317.636,66.800 320.930,66.800 330.272 L 66.800 342.785 67.700 343.008 C 68.195 343.130,71.030 343.179,74.000 343.115 L 79.400 343.000 79.400 330.000 L 79.400 317.000 73.590 316.890 C 69.410 316.811,67.643 316.917,67.290 317.270 " stroke="none" fill="#050504" fill-rule="evenodd"></path><path id="path1" d="M171.800 101.431 C 138.140 135.180,104.601 168.824,97.269 176.196 L 83.937 189.600 93.817 189.600 L 103.698 189.600 118.349 175.010 C 126.407 166.986,148.390 145.069,167.200 126.304 C 206.925 86.677,204.367 88.933,208.320 90.028 C 210.476 90.626,284.460 163.550,286.300 166.892 C 288.496 170.880,287.617 172.529,278.293 181.897 L 270.627 189.600 280.413 189.596 L 290.200 189.592 313.427 166.396 L 336.654 143.200 323.254 129.829 L 309.855 116.458 308.227 117.281 C 307.332 117.734,306.150 118.411,305.600 118.785 C 304.474 119.551,299.032 121.689,296.600 122.321 C 272.625 128.546,248.723 111.598,246.786 87.000 C 246.053 77.692,248.408 67.768,252.822 61.569 C 253.298 60.901,253.623 60.284,253.544 60.198 C 251.665 58.159,233.369 40.010,233.217 40.035 C 233.098 40.054,205.460 67.683,171.800 101.431 M169.728 153.098 C 146.813 176.164,133.838 189.503,134.134 189.691 C 134.390 189.854,158.450 189.946,187.600 189.896 L 240.600 189.804 187.400 189.602 L 134.200 189.400 167.000 156.463 C 194.679 128.668,205.263 118.080,206.193 117.256 C 206.564 116.926,259.267 169.952,259.137 170.525 C 259.062 170.858,255.693 174.521,251.652 178.665 C 240.527 190.072,240.029 190.771,250.132 180.800 C 255.147 175.850,259.439 171.460,259.669 171.045 C 260.083 170.298,207.344 116.800,206.194 116.800 C 205.970 116.800,189.560 133.134,169.728 153.098 M13.600 223.533 L 13.600 243.472 14.619 243.936 C 15.179 244.191,15.931 244.400,16.290 244.400 C 20.299 244.400,29.756 249.740,35.036 254.985 C 41.802 261.707,45.306 269.039,46.820 279.645 C 47.637 285.366,45.804 295.494,43.064 300.400 C 42.634 301.170,41.740 302.790,41.078 304.000 C 37.012 311.428,27.222 319.292,19.200 321.572 C 18.210 321.853,16.987 322.245,16.481 322.442 C 15.976 322.639,15.121 322.800,14.581 322.800 L 13.600 322.800 13.600 343.063 L 13.600 363.326 21.100 363.064 C 25.225 362.920,37.105 362.802,47.500 362.801 L 66.400 362.800 66.400 359.643 C 66.400 355.783,65.973 356.000,73.553 356.000 C 80.526 356.000,80.400 355.929,80.400 359.880 L 80.400 362.800 199.995 362.800 L 319.589 362.800 319.695 349.700 L 319.800 336.600 326.800 336.600 L 333.800 336.600 333.905 349.700 L 334.011 362.800 360.205 362.800 L 386.400 362.800 386.400 342.987 C 386.400 327.477,386.291 323.145,385.900 323.038 C 385.625 322.962,384.410 322.682,383.200 322.416 C 376.418 320.920,368.069 315.907,363.600 310.648 C 362.830 309.741,361.795 308.587,361.300 308.082 C 360.805 307.577,360.400 307.005,360.400 306.810 C 360.400 306.616,360.175 306.214,359.900 305.916 C 359.214 305.174,357.998 303.149,357.729 302.300 C 357.607 301.915,357.348 301.600,357.153 301.600 C 356.959 301.600,356.800 301.328,356.800 300.995 C 356.800 300.662,356.641 300.077,356.447 299.695 C 356.103 299.018,355.417 297.419,354.777 295.800 C 354.603 295.360,354.348 294.460,354.210 293.800 C 354.072 293.140,353.745 291.610,353.482 290.400 C 352.954 287.968,352.862 279.109,353.338 276.600 C 353.784 274.249,354.492 271.854,354.870 271.420 C 355.051 271.211,355.200 270.714,355.200 270.315 C 355.200 269.916,355.352 269.277,355.537 268.895 C 355.722 268.513,356.303 267.300,356.827 266.200 C 357.351 265.100,357.889 264.110,358.022 264.000 C 358.155 263.890,358.519 263.215,358.830 262.500 C 359.141 261.785,359.531 261.200,359.698 261.200 C 359.864 261.200,360.000 261.009,360.000 260.776 C 360.000 260.368,365.074 254.225,366.098 253.393 C 369.312 250.783,373.518 247.979,375.610 247.051 C 377.034 246.420,378.513 245.745,378.895 245.551 C 379.277 245.358,379.941 245.200,380.371 245.200 C 380.801 245.200,381.264 245.020,381.400 244.800 C 381.536 244.580,382.166 244.400,382.800 244.400 C 383.434 244.400,384.064 244.220,384.200 244.000 C 384.336 243.780,384.887 243.600,385.424 243.600 L 386.400 243.600 386.400 223.845 L 386.400 204.089 377.500 203.821 C 372.605 203.674,303.800 203.609,224.600 203.677 L 80.600 203.800 80.400 213.600 L 80.200 223.400 73.400 223.400 L 66.600 223.400 66.400 213.600 L 66.200 203.800 39.900 203.697 L 13.600 203.594 13.600 223.533 M276.868 217.513 C 278.866 218.755,279.841 220.573,280.381 224.060 C 281.522 231.434,285.393 235.275,292.800 236.384 C 296.187 236.891,298.380 238.093,299.614 240.116 C 300.378 241.369,300.397 242.410,300.397 283.400 C 300.397 329.435,300.539 326.428,298.271 328.558 C 297.254 329.512,293.538 330.800,291.800 330.800 C 286.756 330.800,280.832 336.712,280.806 341.772 C 280.797 343.546,279.515 347.252,278.558 348.271 C 278.315 348.530,277.505 349.114,276.758 349.569 L 275.400 350.397 200.000 350.397 C 126.473 350.397,124.569 350.378,123.346 349.633 C 120.905 348.144,119.972 346.376,119.213 341.800 C 118.727 338.869,118.403 337.989,117.104 336.080 C 115.861 334.253,112.615 331.626,111.580 331.610 C 111.239 331.604,110.789 331.437,110.580 331.237 C 110.371 331.037,109.300 330.784,108.200 330.675 C 103.864 330.244,102.079 329.306,100.791 326.782 C 100.018 325.267,100.000 324.282,100.000 283.207 L 100.000 241.183 100.994 239.681 C 102.345 237.640,103.779 236.885,107.241 236.394 C 114.456 235.371,118.616 231.339,119.598 224.417 C 120.222 220.018,121.800 217.685,124.765 216.780 C 125.334 216.607,159.460 216.495,200.600 216.532 L 275.400 216.600 276.868 217.513 M333.412 216.820 C 333.933 217.663,334.151 242.171,333.646 243.114 C 333.030 244.265,320.924 244.513,319.996 243.395 C 319.511 242.811,319.766 217.520,320.265 216.700 C 320.556 216.221,333.113 216.336,333.412 216.820 M79.767 236.643 C 80.326 236.857,80.400 238.413,80.400 250.035 L 80.400 263.185 79.500 263.407 C 79.005 263.529,75.900 263.578,72.600 263.515 L 66.600 263.400 66.494 250.227 C 66.412 239.955,66.500 236.983,66.894 236.733 C 67.481 236.361,78.825 236.281,79.767 236.643 M137.400 236.706 C 137.180 236.868,136.680 238.251,136.290 239.781 C 134.648 246.208,129.274 251.002,122.784 251.828 C 121.583 251.981,120.375 252.285,120.100 252.502 C 119.387 253.067,119.367 313.607,120.080 314.320 C 120.344 314.584,121.289 314.774,122.180 314.743 L 123.800 314.686 122.200 314.443 L 120.600 314.200 120.498 283.300 L 120.395 252.400 121.836 252.400 C 127.004 252.400,136.000 245.995,136.000 242.316 C 136.000 241.995,136.135 241.599,136.300 241.434 C 136.465 241.270,136.780 240.205,137.000 239.068 L 137.400 237.000 199.909 236.899 L 262.419 236.797 262.809 237.825 C 263.024 238.390,263.200 239.220,263.200 239.669 C 263.200 244.897,271.958 252.400,278.062 252.400 L 279.605 252.400 279.502 283.300 L 279.400 314.200 277.800 314.443 L 276.200 314.686 277.820 314.743 C 280.565 314.839,280.400 316.855,280.400 283.147 C 280.400 254.256,280.359 252.443,279.700 252.261 C 279.315 252.154,278.100 251.949,277.000 251.805 C 270.742 250.983,265.247 246.009,263.736 239.798 C 263.362 238.259,262.863 236.868,262.628 236.706 C 262.393 236.544,234.210 236.412,200.000 236.412 C 165.790 236.412,137.620 236.544,137.400 236.706 M333.371 256.629 C 334.319 257.576,334.319 282.424,333.371 283.371 C 332.563 284.179,320.870 284.310,320.080 283.520 C 319.726 283.166,319.600 279.609,319.600 270.000 C 319.600 260.391,319.726 256.834,320.080 256.480 C 320.870 255.690,332.563 255.821,333.371 256.629 M80.306 289.552 C 80.381 298.777,80.280 302.662,79.957 303.052 C 79.484 303.622,68.405 303.884,67.033 303.357 C 66.367 303.102,66.023 277.311,66.676 276.657 C 66.828 276.506,69.933 276.431,73.576 276.491 L 80.200 276.600 80.306 289.552 M333.612 296.800 C 333.840 297.157,333.955 302.656,333.897 310.400 L 333.800 323.400 326.800 323.400 L 319.800 323.400 319.694 310.200 C 319.596 297.978,319.640 296.961,320.294 296.477 C 321.366 295.683,333.083 295.967,333.612 296.800 M126.375 315.830 C 131.202 317.686,134.258 320.843,136.028 325.800 C 136.498 327.118,136.752 327.485,136.771 326.875 C 136.898 322.856,128.772 314.732,124.711 314.820 C 124.178 314.831,124.868 315.250,126.375 315.830 M272.200 315.871 C 267.968 318.060,264.736 321.738,263.650 325.600 C 263.372 326.590,263.017 327.850,262.862 328.400 L 262.581 329.400 200.078 329.501 L 137.575 329.603 137.213 328.701 C 136.859 327.821,136.850 327.825,136.825 328.857 C 136.811 329.470,137.066 330.016,137.433 330.157 C 138.346 330.508,262.117 330.445,262.628 330.094 C 262.863 329.932,263.351 328.584,263.713 327.097 C 264.987 321.854,268.596 317.727,273.549 315.849 C 275.231 315.212,275.834 314.843,275.200 314.841 C 274.650 314.839,273.300 315.303,272.200 315.871 M79.902 316.900 C 80.603 317.776,80.801 342.742,80.112 343.430 C 79.359 344.184,67.624 344.264,66.880 343.520 C 66.359 342.999,66.154 317.180,66.667 316.667 C 67.186 316.147,79.473 316.364,79.902 316.900 " stroke="none" fill="#fbcd67" fill-rule="evenodd"></path><path id="path2" d="M202.986 120.365 C 201.234 122.106,185.040 138.351,167.000 156.465 L 134.200 189.400 187.590 189.501 L 240.980 189.603 250.072 180.301 C 255.072 175.186,259.172 170.740,259.182 170.423 C 259.196 169.958,206.785 117.200,206.308 117.200 C 206.233 117.200,204.738 118.624,202.986 120.365 M137.472 237.061 C 137.329 237.205,137.095 238.199,136.953 239.270 C 136.811 240.341,136.538 241.315,136.347 241.433 C 136.156 241.551,136.000 241.929,136.000 242.273 C 136.000 245.992,127.037 252.400,121.836 252.400 L 120.395 252.400 120.498 283.287 L 120.600 314.174 123.400 314.611 C 129.605 315.578,136.800 322.095,136.800 326.749 C 136.800 327.188,136.976 328.010,137.191 328.575 L 137.581 329.603 200.081 329.501 L 262.581 329.400 262.862 328.400 C 263.017 327.850,263.372 326.590,263.650 325.600 C 265.199 320.089,270.545 315.552,276.600 314.610 L 279.400 314.174 279.502 283.287 L 279.605 252.400 278.062 252.400 C 271.958 252.400,263.200 244.897,263.200 239.669 C 263.200 239.220,263.024 238.390,262.810 237.826 L 262.420 236.800 200.077 236.800 C 165.788 236.800,137.616 236.917,137.472 237.061 " stroke="none" fill="#f4f3e3" fill-rule="evenodd"></path><path id="path3" d="M244.400 51.000 C 249.346 55.950,253.483 60.000,253.593 60.000 C 253.703 60.000,249.746 55.950,244.800 51.000 C 239.854 46.050,235.717 42.000,235.607 42.000 C 235.497 42.000,239.454 46.050,244.400 51.000 M165.271 148.100 L 123.969 189.400 128.685 189.520 L 133.400 189.639 169.600 153.218 C 189.510 133.186,205.981 116.797,206.201 116.798 C 206.712 116.800,260.000 170.073,260.000 170.582 C 260.000 170.790,255.820 175.155,250.711 180.280 L 241.423 189.600 246.011 189.599 L 250.600 189.598 260.380 179.797 L 270.160 169.996 238.499 138.398 C 221.086 121.019,206.779 106.800,206.706 106.800 C 206.633 106.800,187.987 125.385,165.271 148.100 M257.983 111.700 C 258.964 112.745,259.819 113.600,259.883 113.600 C 260.184 113.600,259.866 113.241,258.100 111.583 L 256.200 109.800 257.983 111.700 M179.775 113.700 L 178.600 115.000 179.900 113.825 C 180.615 113.179,181.200 112.594,181.200 112.525 C 181.200 112.216,180.870 112.488,179.775 113.700 M310.400 116.910 C 310.400 116.971,311.795 118.366,313.500 120.010 L 316.600 123.000 313.610 119.900 C 310.833 117.021,310.400 116.617,310.400 116.910 M321.600 128.200 C 324.343 130.950,326.678 133.200,326.788 133.200 C 326.898 133.200,324.743 130.950,322.000 128.200 C 319.257 125.450,316.922 123.200,316.812 123.200 C 316.702 123.200,318.857 125.450,321.600 128.200 M163.375 130.100 L 162.200 131.400 163.500 130.225 C 164.712 129.130,164.984 128.800,164.675 128.800 C 164.606 128.800,164.021 129.385,163.375 130.100 M331.000 137.600 C 333.192 139.800,335.075 141.600,335.185 141.600 C 335.295 141.600,333.592 139.800,331.400 137.600 C 329.208 135.400,327.325 133.600,327.215 133.600 C 327.105 133.600,328.808 135.400,331.000 137.600 M312.600 167.200 C 300.281 179.520,290.323 189.600,290.471 189.600 C 290.618 189.600,300.814 179.520,313.129 167.200 C 325.444 154.880,335.402 144.800,335.258 144.800 C 335.115 144.800,324.919 154.880,312.600 167.200 M277.466 157.600 C 281.682 161.890,285.506 166.030,285.964 166.800 C 286.422 167.570,286.798 168.002,286.799 167.760 C 286.802 166.821,284.203 163.925,277.142 157.000 L 269.800 149.800 277.466 157.600 M120.135 173.150 C 112.911 180.382,106.284 187.087,105.409 188.050 C 104.533 189.012,110.518 183.141,118.709 175.002 C 126.899 166.863,133.600 160.158,133.600 160.102 C 133.600 159.724,131.902 161.370,120.135 173.150 M97.800 175.200 C 89.882 183.120,83.523 189.600,83.668 189.600 C 83.813 189.600,89.842 183.685,97.066 176.457 C 110.723 162.789,112.668 160.800,112.373 160.800 C 112.275 160.800,105.718 167.280,97.800 175.200 M286.909 170.000 C 286.909 170.990,286.987 171.395,287.082 170.900 C 287.178 170.405,287.178 169.595,287.082 169.100 C 286.987 168.605,286.909 169.010,286.909 170.000 M286.184 172.870 C 286.025 173.381,282.368 177.400,278.057 181.800 L 270.218 189.800 277.728 182.400 C 284.696 175.534,287.200 172.667,286.682 172.149 C 286.567 172.034,286.343 172.358,286.184 172.870 M379.700 203.896 C 380.965 203.975,383.035 203.975,384.300 203.896 C 385.565 203.816,384.530 203.751,382.000 203.751 C 379.470 203.751,378.435 203.816,379.700 203.896 M79.999 213.881 C 79.890 219.205,79.938 223.423,80.108 223.253 C 80.277 223.084,80.366 218.727,80.307 213.572 L 80.199 204.200 79.999 213.881 M333.773 233.200 C 333.773 238.590,333.830 240.795,333.899 238.100 C 333.968 235.405,333.968 230.995,333.899 228.300 C 333.830 225.605,333.773 227.810,333.773 233.200 M319.686 236.020 C 319.624 241.048,319.736 243.176,320.080 243.520 C 320.617 244.057,333.013 244.226,333.339 243.700 C 333.441 243.535,330.526 243.400,326.862 243.400 L 320.200 243.400 319.986 236.200 L 319.772 229.000 319.686 236.020 M132.900 230.665 C 132.625 230.776,132.400 231.120,132.400 231.430 C 132.400 232.285,129.942 237.600,129.546 237.600 C 129.356 237.600,129.200 237.836,129.200 238.124 C 129.200 238.876,123.728 244.444,121.600 245.858 C 119.748 247.088,118.255 247.835,115.300 249.011 L 113.600 249.687 113.600 283.408 L 113.600 317.130 116.342 318.178 C 123.391 320.872,129.045 326.506,131.836 333.620 L 132.927 336.402 200.123 336.301 L 267.320 336.200 267.849 334.671 C 270.520 326.954,277.029 320.423,284.600 317.861 L 286.200 317.320 286.302 283.606 C 286.413 247.239,286.496 248.864,284.512 248.813 C 280.004 248.695,271.100 240.193,268.372 233.400 C 267.841 232.080,267.226 230.868,267.004 230.706 C 266.558 230.382,133.702 230.341,132.900 230.665 M262.628 236.706 C 262.863 236.868,263.362 238.259,263.736 239.798 C 265.247 246.009,270.742 250.983,277.000 251.805 C 278.100 251.949,279.315 252.154,279.700 252.261 C 280.359 252.443,280.400 254.256,280.400 283.147 C 280.400 316.689,280.547 314.800,277.943 314.800 C 271.872 314.800,265.327 320.456,263.713 327.097 C 263.351 328.584,262.863 329.932,262.628 330.094 C 262.117 330.445,138.346 330.508,137.433 330.157 C 137.085 330.024,136.800 329.512,136.800 329.020 C 136.800 322.616,128.705 314.800,122.071 314.800 C 121.240 314.800,120.344 314.584,120.080 314.320 C 119.367 313.607,119.387 253.067,120.100 252.502 C 120.375 252.285,121.583 251.981,122.784 251.828 C 129.274 251.002,134.648 246.208,136.290 239.781 C 136.680 238.251,137.180 236.868,137.400 236.706 C 137.620 236.544,165.790 236.412,200.000 236.412 C 234.210 236.412,262.393 236.544,262.628 236.706 M298.250 238.803 C 298.718 239.351,299.303 240.193,299.550 240.674 C 300.189 241.915,300.191 324.882,299.551 326.126 C 299.304 326.607,298.641 327.495,298.076 328.100 C 297.056 329.194,297.165 329.692,298.199 328.658 C 300.557 326.300,300.397 329.592,300.399 283.480 C 300.400 238.300,300.498 240.427,298.341 238.602 L 297.400 237.806 298.250 238.803 M373.100 248.229 C 371.605 249.040,371.696 249.378,373.200 248.600 C 373.860 248.259,374.400 247.894,374.400 247.790 C 374.400 247.532,374.357 247.547,373.100 248.229 M369.800 250.644 L 368.200 252.076 369.900 250.804 C 371.363 249.710,371.891 249.183,371.500 249.206 C 371.445 249.209,370.680 249.856,369.800 250.644 M363.801 255.819 C 362.758 257.040,361.972 258.096,362.053 258.166 C 362.134 258.236,363.069 257.237,364.132 255.946 C 366.585 252.967,366.324 252.867,363.801 255.819 M320.080 256.480 C 319.726 256.834,319.600 260.391,319.600 270.000 C 319.600 279.609,319.726 283.166,320.080 283.520 C 320.420 283.860,322.376 283.975,326.780 283.915 L 333.000 283.831 326.600 283.615 L 320.200 283.400 320.200 270.000 L 320.200 256.600 326.600 256.385 L 333.000 256.169 326.780 256.085 C 322.376 256.025,320.420 256.140,320.080 256.480 M333.779 270.000 C 333.779 277.150,333.833 280.075,333.899 276.500 C 333.966 272.925,333.966 267.075,333.899 263.500 C 333.833 259.925,333.779 262.850,333.779 270.000 M353.849 273.815 C 353.712 274.173,353.621 274.946,353.646 275.533 C 353.680 276.332,353.770 276.198,354.004 275.000 C 354.335 273.300,354.262 272.740,353.849 273.815 M353.052 278.100 C 352.736 279.278,352.805 287.533,353.140 288.724 C 353.283 289.232,353.400 286.847,353.400 283.424 C 353.400 280.001,353.376 277.200,353.347 277.200 C 353.317 277.200,353.185 277.605,353.052 278.100 M46.928 283.200 C 46.928 284.630,47.001 285.215,47.089 284.500 C 47.178 283.785,47.178 282.615,47.089 281.900 C 47.001 281.185,46.928 281.770,46.928 283.200 M353.606 291.233 C 353.609 291.765,353.789 292.470,354.006 292.800 C 354.282 293.222,354.323 292.985,354.142 292.000 C 353.825 290.275,353.598 289.949,353.606 291.233 M354.428 294.676 C 354.413 295.158,354.580 295.664,354.800 295.800 C 355.273 296.092,355.273 295.701,354.800 294.600 C 354.469 293.829,354.455 293.831,354.428 294.676 M320.300 296.432 C 319.560 296.863,319.173 322.889,319.900 323.338 C 320.065 323.441,320.150 317.516,320.090 310.172 L 319.979 296.820 320.890 296.608 C 321.390 296.491,324.230 296.345,327.200 296.285 L 332.600 296.175 326.800 296.100 C 323.438 296.056,320.706 296.196,320.300 296.432 M333.600 310.280 C 333.490 317.585,333.538 323.423,333.706 323.255 C 333.874 323.086,333.964 317.110,333.905 309.974 L 333.799 297.000 333.600 310.280 M360.473 307.000 C 360.723 307.550,361.084 308.000,361.273 308.000 C 361.463 308.000,361.324 307.550,360.963 307.000 C 360.603 306.450,360.243 306.000,360.163 306.000 C 360.083 306.000,360.222 306.450,360.473 307.000 M363.629 310.648 C 366.266 313.817,372.850 318.726,376.138 319.977 C 377.699 320.570,377.433 320.108,375.827 319.437 C 373.267 318.368,367.812 314.475,365.029 311.731 C 363.505 310.229,362.875 309.741,363.629 310.648 M380.000 321.600 C 380.330 321.813,380.870 321.988,381.200 321.988 C 381.733 321.988,381.733 321.945,381.200 321.600 C 380.870 321.387,380.330 321.212,380.000 321.212 C 379.467 321.212,379.467 321.255,380.000 321.600 M383.000 322.400 C 383.440 322.589,384.070 322.744,384.400 322.744 C 384.778 322.744,384.704 322.617,384.200 322.400 C 383.760 322.211,383.130 322.056,382.800 322.056 C 382.422 322.056,382.496 322.183,383.000 322.400 M106.046 330.437 C 106.565 330.765,109.929 330.972,109.567 330.653 C 109.475 330.572,108.521 330.412,107.446 330.296 C 106.251 330.168,105.707 330.222,106.046 330.437 M292.000 330.400 L 290.200 330.680 291.800 330.734 C 292.680 330.763,293.670 330.613,294.000 330.400 C 294.330 330.187,294.420 330.037,294.200 330.066 C 293.980 330.096,292.990 330.246,292.000 330.400 M112.600 331.849 C 112.820 332.066,113.670 332.735,114.489 333.334 C 117.100 335.245,119.193 339.103,119.206 342.028 C 119.209 342.783,119.377 343.661,119.579 343.979 C 120.054 344.730,119.727 341.583,119.104 339.400 C 118.592 337.609,116.968 335.034,115.542 333.753 C 114.572 332.881,111.885 331.142,112.600 331.849 M319.867 336.667 C 319.720 336.813,319.600 342.753,319.600 349.866 L 319.600 362.799 199.900 362.900 L 80.200 363.002 200.000 363.001 L 319.800 363.000 319.906 350.020 C 319.985 340.247,320.133 336.963,320.506 336.726 C 320.804 336.537,320.828 336.410,320.567 336.406 C 320.328 336.403,320.013 336.520,319.867 336.667 M333.190 336.663 C 333.458 336.796,333.600 341.440,333.600 350.033 L 333.600 363.200 360.100 363.103 L 386.600 363.006 360.305 362.900 L 334.011 362.794 333.905 349.730 C 333.823 339.530,333.688 336.644,333.290 336.563 C 333.010 336.506,332.965 336.552,333.190 336.663 M80.400 340.120 C 80.400 341.547,80.192 342.848,79.920 343.120 C 79.234 343.806,67.571 343.789,66.799 343.100 C 66.322 342.675,66.318 342.704,66.768 343.300 C 67.522 344.296,79.184 344.358,80.171 343.371 C 80.759 342.784,81.144 337.600,80.600 337.600 C 80.490 337.600,80.400 338.734,80.400 340.120 M280.467 341.667 C 280.430 342.474,280.296 343.464,280.170 343.867 C 279.953 344.557,279.966 344.559,280.394 343.893 C 280.643 343.504,280.777 342.514,280.691 341.693 L 280.534 340.200 280.467 341.667 M121.601 348.138 C 123.732 350.566,117.985 350.400,200.080 350.399 L 275.400 350.397 276.758 349.569 C 278.281 348.641,279.200 347.807,279.200 347.354 C 279.200 347.187,278.705 347.512,278.100 348.076 C 277.495 348.641,276.607 349.304,276.126 349.551 C 275.490 349.878,254.845 350.000,200.000 350.000 C 145.155 350.000,124.510 349.878,123.874 349.551 C 123.393 349.304,122.461 348.629,121.801 348.051 L 120.603 347.000 121.601 348.138 M66.900 356.265 C 66.625 356.376,66.400 356.668,66.400 356.913 C 66.400 357.224,66.546 357.214,66.880 356.880 C 67.566 356.194,79.229 356.211,80.001 356.900 C 80.478 357.325,80.482 357.296,80.032 356.700 C 79.514 356.016,68.427 355.649,66.900 356.265 M34.072 363.100 C 39.941 363.162,49.661 363.162,55.672 363.100 C 61.682 363.038,56.880 362.987,45.000 362.986 C 33.120 362.986,28.202 363.037,34.072 363.100 " stroke="none" fill="#e97625" fill-rule="evenodd"></path><path id="path4" d="M158.100 114.500 C 116.905 155.696,83.200 189.536,83.200 189.700 C 83.200 189.865,87.929 190.000,93.708 190.000 L 104.217 190.000 153.408 140.894 C 180.464 113.886,203.123 91.521,203.762 91.194 C 205.500 90.306,208.802 90.458,210.226 91.493 C 214.282 94.439,285.925 167.081,286.173 168.500 C 286.781 171.968,286.516 172.369,277.739 181.227 C 273.255 185.752,269.710 189.577,269.860 189.727 C 270.010 189.877,274.829 190.000,280.568 190.000 L 291.003 190.000 314.302 166.698 L 337.601 143.397 323.700 129.543 L 309.800 115.690 307.469 117.081 C 306.187 117.846,305.221 118.555,305.323 118.656 C 305.425 118.758,306.374 118.292,307.432 117.620 C 308.491 116.949,309.540 116.400,309.764 116.400 C 310.208 116.400,336.800 142.812,336.800 143.252 C 336.800 143.400,326.436 153.888,313.769 166.560 L 290.738 189.600 280.482 189.600 L 270.227 189.600 277.867 181.900 C 287.566 172.124,288.355 170.550,285.645 166.378 C 283.771 163.495,211.269 91.345,209.513 90.617 C 207.784 89.900,205.724 89.824,204.126 90.419 C 203.488 90.657,181.587 112.242,153.598 140.219 L 104.196 189.600 93.798 189.600 L 83.401 189.600 158.200 114.800 C 199.340 73.660,233.181 40.000,233.403 40.000 C 233.624 40.000,238.305 44.503,243.803 50.006 L 253.800 60.012 253.048 61.306 C 248.203 69.635,246.699 75.139,246.755 84.329 C 246.774 87.481,246.900 90.238,247.036 90.458 C 247.171 90.677,247.604 92.149,247.997 93.728 C 248.845 97.133,249.538 98.995,249.844 98.690 C 249.965 98.568,249.882 98.127,249.658 97.709 C 245.130 89.248,246.981 70.822,253.251 61.938 C 253.663 61.354,254.000 60.633,254.000 60.335 C 254.000 59.720,234.008 39.600,233.397 39.600 C 233.178 39.600,199.294 73.305,158.100 114.500 M250.011 99.339 C 249.889 103.266,265.938 120.595,267.890 118.644 C 267.983 118.550,266.991 117.847,265.684 117.081 C 259.952 113.721,255.059 108.445,251.515 101.800 C 250.693 100.260,250.016 99.153,250.011 99.339 M164.881 147.719 C 141.956 170.644,123.200 189.536,123.200 189.701 C 123.200 189.865,125.765 189.963,128.900 189.918 L 134.600 189.836 129.284 189.618 L 123.968 189.400 165.190 148.200 C 187.862 125.540,206.605 107.050,206.840 107.111 C 207.076 107.173,221.419 121.347,238.713 138.610 L 270.158 169.998 260.388 179.788 L 250.617 189.578 245.408 189.702 L 240.200 189.825 245.603 189.913 L 251.006 190.000 260.703 180.297 C 266.036 174.960,270.400 170.348,270.400 170.047 C 270.400 169.615,209.424 108.366,207.154 106.518 C 206.659 106.116,199.723 112.876,164.881 147.719 M268.620 119.139 C 269.164 119.624,275.071 121.841,277.200 122.360 C 282.822 123.729,287.278 123.902,292.600 122.959 C 294.580 122.608,296.787 122.229,297.504 122.117 C 298.221 122.004,298.906 121.751,299.027 121.556 C 299.148 121.360,299.501 121.200,299.812 121.200 C 300.449 121.200,304.800 119.276,304.800 118.994 C 304.800 118.894,303.945 119.151,302.900 119.565 C 298.500 121.309,297.649 121.584,294.600 122.250 C 287.600 123.778,278.521 122.935,271.812 120.132 C 268.455 118.729,268.003 118.589,268.620 119.139 M13.296 223.688 L 13.400 244.176 16.600 245.033 C 20.366 246.042,22.460 246.857,26.000 248.692 C 27.430 249.433,28.240 249.742,27.800 249.380 C 26.366 248.198,20.537 245.590,17.600 244.818 C 16.610 244.557,15.350 244.217,14.800 244.062 L 13.800 243.781 13.696 223.690 L 13.593 203.600 39.989 203.600 L 66.386 203.600 66.493 213.500 L 66.600 223.400 73.200 223.400 L 79.800 223.400 80.018 213.600 C 80.138 208.210,80.273 203.755,80.318 203.700 C 80.363 203.645,149.250 203.600,233.400 203.600 L 386.400 203.600 386.400 223.536 L 386.400 243.472 385.381 243.936 C 384.821 244.191,384.055 244.400,383.679 244.400 C 380.132 244.400,364.466 253.421,364.389 255.507 C 364.383 255.668,363.639 256.608,362.734 257.595 C 361.134 259.342,360.044 260.903,358.313 263.926 C 356.829 266.518,356.311 267.645,356.512 267.846 C 356.620 267.953,357.151 267.177,357.692 266.121 C 359.910 261.794,360.721 260.562,363.302 257.594 C 369.336 250.656,375.663 246.877,385.200 244.517 L 386.600 244.170 386.704 223.685 L 386.807 203.199 233.304 203.299 L 79.800 203.400 79.693 213.300 L 79.586 223.200 73.436 223.200 C 66.017 223.200,66.800 224.455,66.800 212.567 L 66.800 203.200 39.996 203.200 L 13.193 203.200 13.296 223.688 M125.515 216.728 C 125.138 216.878,158.618 217.000,199.915 217.000 C 284.602 217.000,276.483 216.693,278.699 219.981 C 279.194 220.716,279.600 221.091,279.600 220.812 C 279.600 219.874,276.601 217.293,274.991 216.846 C 273.219 216.354,126.749 216.238,125.515 216.728 M320.182 216.903 C 320.076 217.180,320.036 223.255,320.094 230.403 L 320.200 243.400 326.800 243.400 L 333.400 243.400 333.506 230.227 C 333.588 219.955,333.500 216.983,333.106 216.733 C 332.221 216.171,320.403 216.327,320.182 216.903 M332.720 217.280 C 333.073 217.633,333.200 221.074,333.200 230.272 L 333.200 242.785 332.300 243.008 C 331.805 243.130,328.970 243.179,326.000 243.115 L 320.600 243.000 320.494 230.404 C 320.436 223.476,320.475 217.581,320.582 217.304 C 320.849 216.607,332.025 216.585,332.720 217.280 M121.450 219.214 C 120.872 219.900,120.401 220.763,120.401 221.131 C 120.402 221.528,120.748 221.232,121.252 220.400 C 121.719 219.630,122.298 218.875,122.539 218.722 C 122.780 218.569,122.869 218.336,122.738 218.205 C 122.607 218.074,122.027 218.528,121.450 219.214 M279.652 222.800 C 279.488 228.187,284.954 236.002,288.884 236.000 C 289.168 236.000,288.590 235.601,287.600 235.114 C 283.899 233.294,280.511 228.512,280.353 224.885 C 280.327 224.288,280.168 223.260,280.000 222.600 L 279.695 221.400 279.652 222.800 M119.811 223.675 C 119.649 224.706,119.602 225.786,119.706 226.075 C 119.810 226.364,120.027 225.756,120.189 224.725 C 120.351 223.694,120.398 222.614,120.294 222.325 C 120.190 222.036,119.973 222.644,119.811 223.675 M119.000 227.600 C 118.850 228.073,118.817 228.550,118.927 228.660 C 119.037 228.770,119.250 228.473,119.400 228.000 C 119.550 227.527,119.583 227.050,119.473 226.940 C 119.363 226.830,119.150 227.127,119.000 227.600 M117.674 230.479 C 115.900 233.344,112.852 235.379,109.118 236.190 C 107.128 236.622,106.893 236.742,108.000 236.762 C 110.211 236.803,113.090 235.605,115.400 233.683 C 116.808 232.511,118.986 229.653,118.694 229.360 C 118.582 229.249,118.123 229.752,117.674 230.479 M132.700 230.032 C 132.315 230.256,132.000 230.718,132.000 231.059 C 132.000 236.293,122.484 246.027,114.957 248.493 L 113.400 249.003 113.400 283.375 L 113.400 317.747 115.200 318.382 C 117.882 319.327,121.243 321.067,122.600 322.212 C 127.703 326.520,130.262 330.241,132.150 336.101 C 132.364 336.766,135.858 336.797,200.062 336.701 L 267.747 336.600 268.380 334.800 C 271.051 327.206,277.206 321.051,284.800 318.380 L 286.600 317.747 286.600 283.391 L 286.600 249.034 284.373 248.217 C 277.347 245.640,271.505 239.926,268.813 233.000 C 268.300 231.680,267.603 230.375,267.264 230.100 C 266.462 229.450,133.815 229.383,132.700 230.032 M267.004 230.706 C 267.226 230.868,267.841 232.080,268.372 233.400 C 271.100 240.193,280.004 248.695,284.512 248.813 C 286.496 248.864,286.413 247.239,286.302 283.606 L 286.200 317.320 284.600 317.861 C 277.029 320.423,270.520 326.954,267.849 334.671 L 267.320 336.200 200.123 336.301 L 132.927 336.402 131.836 333.620 C 129.045 326.506,123.391 320.872,116.342 318.178 L 113.600 317.130 113.600 283.408 L 113.600 249.687 115.300 249.011 C 118.255 247.835,119.748 247.088,121.600 245.858 C 123.728 244.444,129.200 238.876,129.200 238.124 C 129.200 237.836,129.356 237.600,129.546 237.600 C 129.942 237.600,132.400 232.285,132.400 231.430 C 132.400 231.120,132.625 230.776,132.900 230.665 C 133.702 230.341,266.558 230.382,267.004 230.706 M289.794 236.391 C 289.933 236.616,290.787 236.800,291.690 236.800 C 293.710 236.800,293.556 236.597,291.271 236.246 C 290.131 236.072,289.627 236.121,289.794 236.391 M70.518 236.698 C 72.233 236.773,74.933 236.772,76.518 236.697 C 78.103 236.621,76.700 236.559,73.400 236.560 C 70.100 236.561,68.803 236.622,70.518 236.698 M66.400 249.957 C 66.400 261.586,66.474 263.143,67.033 263.357 C 68.267 263.831,79.414 263.626,79.920 263.120 C 80.538 262.502,80.615 237.380,80.000 237.000 C 79.736 236.837,79.600 241.266,79.600 249.987 L 79.600 263.220 73.300 263.110 L 67.000 263.000 67.000 249.900 C 67.000 242.695,66.865 236.800,66.700 236.800 C 66.535 236.800,66.400 242.721,66.400 249.957 M103.169 237.710 C 101.430 238.881,99.986 241.034,100.051 242.359 C 100.092 243.217,100.178 243.123,100.540 241.824 C 101.070 239.917,102.986 237.908,104.838 237.317 C 105.794 237.011,105.950 236.870,105.359 236.841 C 104.897 236.818,103.911 237.209,103.169 237.710 M295.162 237.317 C 295.912 237.556,297.093 238.319,297.787 239.013 C 298.481 239.707,299.244 240.888,299.483 241.638 C 299.789 242.594,299.930 242.750,299.959 242.159 C 300.015 241.013,298.468 238.813,296.831 237.710 C 296.089 237.209,295.103 236.818,294.641 236.841 C 294.050 236.870,294.206 237.011,295.162 237.317 M29.600 250.806 C 30.150 251.279,31.394 252.324,32.365 253.129 C 34.442 254.850,36.792 257.274,36.797 257.700 C 36.798 257.865,36.988 258.000,37.219 258.000 C 37.937 258.000,35.282 255.019,32.552 252.760 C 30.060 250.698,27.514 249.013,29.600 250.806 M320.186 256.893 C 320.077 257.176,320.036 263.255,320.094 270.403 L 320.200 283.400 326.800 283.400 L 333.400 283.400 333.400 270.000 L 333.400 256.600 326.891 256.490 C 321.883 256.405,320.337 256.498,320.186 256.893 M333.200 269.992 L 333.200 282.785 332.300 283.008 C 331.805 283.130,328.970 283.179,326.000 283.115 L 320.600 283.000 320.494 270.100 L 320.389 257.200 326.794 257.200 L 333.200 257.200 333.200 269.992 M39.822 261.562 C 41.020 263.301,42.000 264.833,42.000 264.966 C 42.000 265.100,42.378 266.062,42.840 267.104 C 44.032 269.795,44.247 270.376,44.803 272.400 C 45.678 275.588,46.029 276.388,45.767 274.600 C 45.121 270.177,39.428 258.400,37.937 258.400 C 37.776 258.400,38.624 259.823,39.822 261.562 M355.093 271.418 C 354.487 273.168,354.007 274.960,354.027 275.400 C 354.067 276.278,354.195 275.956,355.223 272.400 C 355.510 271.410,355.907 270.384,356.105 270.119 C 356.304 269.855,356.405 269.323,356.331 268.937 C 356.257 268.551,355.700 269.667,355.093 271.418 M46.184 283.421 C 46.179 287.554,46.298 289.921,46.465 289.000 C 46.834 286.957,46.840 279.883,46.474 277.821 C 46.317 276.940,46.189 279.413,46.184 283.421 M66.900 276.665 C 65.939 277.053,66.203 302.667,67.174 303.186 C 68.295 303.786,79.311 303.729,79.920 303.120 C 80.546 302.494,80.608 278.336,79.986 277.174 C 79.583 276.421,68.567 275.992,66.900 276.665 M353.454 278.256 C 353.122 280.684,353.168 286.969,353.534 289.000 C 353.702 289.930,353.825 287.627,353.827 283.500 C 353.832 275.704,353.822 275.570,353.454 278.256 M79.505 289.900 L 79.400 303.000 74.000 303.115 C 71.030 303.179,68.195 303.130,67.700 303.008 L 66.800 302.785 66.800 290.425 C 66.800 283.627,66.909 277.781,67.043 277.433 C 67.250 276.894,68.198 276.800,73.448 276.800 L 79.611 276.800 79.505 289.900 M354.006 291.201 C 353.973 294.412,358.996 305.146,362.178 308.667 C 368.959 316.170,375.725 320.384,384.300 322.446 L 386.400 322.951 386.400 343.076 L 386.400 363.200 360.000 363.200 L 333.600 363.200 333.600 350.043 C 333.600 338.414,333.526 336.857,332.967 336.643 C 332.619 336.509,329.694 336.438,326.467 336.484 L 320.600 336.568 326.800 336.784 L 333.000 337.000 333.200 350.200 L 333.400 363.400 360.000 363.400 L 386.600 363.400 386.704 343.091 L 386.807 322.783 385.751 322.381 C 385.170 322.161,383.877 321.797,382.878 321.573 C 379.193 320.747,371.180 316.837,369.281 314.939 C 368.979 314.636,368.090 313.899,367.306 313.301 C 365.380 311.832,360.824 306.515,359.639 304.354 C 356.713 299.018,354.808 294.386,354.794 292.572 C 354.786 291.595,354.016 290.255,354.006 291.201 M45.417 292.200 C 45.067 293.691,44.447 295.530,43.913 296.661 C 43.690 297.134,43.577 297.732,43.664 297.991 C 43.750 298.249,44.325 297.005,44.942 295.226 C 45.559 293.447,45.982 291.769,45.881 291.496 C 45.781 291.223,45.572 291.540,45.417 292.200 M320.494 296.733 C 320.100 296.983,320.012 299.955,320.094 310.227 L 320.200 323.400 326.800 323.400 L 333.400 323.400 333.506 310.227 C 333.588 299.955,333.500 296.983,333.106 296.733 C 332.828 296.557,329.990 296.412,326.800 296.412 C 323.610 296.412,320.772 296.557,320.494 296.733 M332.706 297.133 C 333.100 297.383,333.188 300.275,333.106 310.227 L 333.000 323.000 326.700 323.110 L 320.400 323.220 320.400 310.277 C 320.400 303.158,320.520 297.213,320.667 297.067 C 321.047 296.686,332.098 296.747,332.706 297.133 M42.548 300.268 C 37.718 310.542,28.900 318.029,17.600 321.451 L 13.400 322.724 13.400 343.062 L 13.400 363.400 40.000 363.400 L 66.600 363.400 66.800 360.400 L 67.000 357.400 73.300 357.290 L 79.600 357.180 79.600 360.182 C 79.600 362.965,79.666 363.201,80.500 363.402 C 80.995 363.521,135.130 363.569,200.800 363.509 L 320.200 363.400 320.211 350.000 L 320.222 336.600 320.011 349.800 L 319.800 363.000 200.100 363.101 L 80.400 363.201 80.400 360.281 C 80.400 356.320,80.544 356.400,73.400 356.400 C 66.256 356.400,66.400 356.320,66.400 360.280 L 66.400 363.200 40.000 363.200 L 13.600 363.200 13.600 343.000 C 13.600 324.354,13.652 322.800,14.272 322.800 C 17.487 322.800,26.793 318.516,31.179 315.017 C 36.461 310.802,44.642 300.109,43.476 298.943 C 43.362 298.828,42.944 299.425,42.548 300.268 M66.880 316.880 C 66.193 317.567,66.193 342.433,66.880 343.120 C 67.211 343.451,69.236 343.600,73.400 343.600 C 77.564 343.600,79.589 343.451,79.920 343.120 C 80.546 342.494,80.608 318.336,79.986 317.174 C 79.481 316.231,67.791 315.969,66.880 316.880 M79.400 330.000 L 79.400 343.000 74.000 343.115 C 71.030 343.179,68.195 343.130,67.700 343.008 L 66.800 342.785 66.800 330.272 C 66.800 320.930,66.924 317.636,67.290 317.270 C 67.643 316.917,69.410 316.811,73.590 316.890 L 79.400 317.000 79.400 330.000 M100.039 324.240 C 99.944 327.235,102.957 329.703,107.472 330.329 C 112.161 330.978,115.618 332.993,117.630 336.249 C 118.104 337.015,118.580 337.554,118.688 337.445 C 118.796 337.337,118.308 336.445,117.603 335.464 C 115.257 332.197,111.474 330.182,106.800 329.708 C 103.453 329.369,101.431 327.722,100.539 324.609 C 100.093 323.051,100.077 323.039,100.039 324.240 M299.411 324.870 C 298.666 327.518,296.303 329.567,293.909 329.640 C 293.189 329.662,292.150 329.839,291.600 330.034 C 290.901 330.281,291.303 330.327,292.934 330.186 C 296.477 329.881,299.187 327.985,299.848 325.351 C 300.166 324.083,299.759 323.635,299.411 324.870 M287.283 331.311 C 284.015 333.002,280.352 337.585,280.421 339.896 C 280.432 340.283,280.810 339.641,281.260 338.469 C 282.354 335.623,285.623 332.354,288.469 331.260 C 289.641 330.810,290.240 330.437,289.800 330.432 C 289.360 330.427,288.227 330.822,287.283 331.311 M118.806 338.476 C 118.818 339.481,119.587 340.308,119.594 339.324 C 119.597 338.842,119.420 338.336,119.200 338.200 C 118.980 338.064,118.803 338.188,118.806 338.476 M119.668 341.800 C 119.662 342.680,119.811 343.760,120.000 344.200 C 120.461 345.273,120.461 342.640,120.000 341.200 C 119.725 340.341,119.678 340.425,119.668 341.800 M279.853 342.036 C 279.714 342.731,279.600 343.731,279.600 344.259 C 279.600 344.786,279.144 345.906,278.587 346.748 C 277.628 348.197,277.187 348.520,274.800 349.525 C 273.892 349.907,273.877 349.948,274.641 349.973 C 276.983 350.048,279.804 346.706,280.222 343.362 C 280.522 340.958,280.258 340.010,279.853 342.036 M120.404 345.669 C 120.395 347.284,123.770 350.034,125.680 349.968 C 126.476 349.941,126.438 349.883,125.400 349.539 C 123.100 348.777,122.342 348.227,121.378 346.619 C 120.843 345.727,120.406 345.301,120.404 345.669 " stroke="none" fill="#964a15" fill-rule="evenodd"></path></g></svg>