<?xml version="1.0" standalone="no"?>
<!DOCTYPE svg PUBLIC "-//W3C//DTD SVG 20010904//EN"
 "http://www.w3.org/TR/2001/REC-SVG-20010904/DTD/svg10.dtd">
<svg version="1.0" xmlns="http://www.w3.org/2000/svg"
 width="512.000000pt" height="512.000000pt" viewBox="0 0 512.000000 512.000000"
 preserveAspectRatio="xMidYMid meet">

<g transform="translate(0.000000,512.000000) scale(0.100000,-0.100000)"
fill="#000000" stroke="none">
<path d="M2893 5106 c-105 -34 -187 -109 -223 -203 l-18 -48 -73 3 c-85 4
-150 -14 -218 -60 -47 -33 -100 -101 -117 -151 -10 -30 -16 -33 -87 -48 -161
-33 -276 -165 -277 -319 0 -54 -1 -56 -54 -102 -34 -30 -65 -69 -83 -105 -24
-51 -28 -69 -28 -148 0 -103 19 -156 78 -222 l36 -39 -15 -94 c-7 -52 -14
-107 -14 -122 0 -22 -7 -31 -35 -42 -54 -23 -61 -48 -47 -180 7 -62 12 -123
12 -135 0 -21 -2 -21 -224 -21 l-224 0 -133 532 c-108 432 -137 537 -155 555
l-23 23 -450 0 c-309 0 -458 -3 -474 -11 -42 -19 -47 -48 -47 -250 l0 -191 29
-29 29 -29 279 0 278 0 73 -292 c40 -161 72 -296 72 -300 0 -5 -159 -8 -352
-8 -262 -1 -357 -4 -369 -13 -35 -27 -39 -54 -39 -247 l0 -192 29 -29 c16 -16
36 -29 45 -29 10 0 17 -14 20 -43 3 -23 46 -575 96 -1227 49 -652 92 -1199 95
-1217 3 -18 17 -41 32 -53 25 -20 36 -20 709 -20 l683 0 27 24 28 23 62 805
c34 443 64 814 66 824 2 11 41 -307 86 -706 111 -962 105 -920 137 -947 l26
-23 1274 0 1274 0 26 23 27 22 190 1645 c179 1559 189 1647 174 1678 -11 22
-25 34 -45 38 -26 5 -29 11 -34 56 -6 45 -3 54 28 100 71 103 82 223 30 335
-28 63 -110 147 -159 163 l-34 11 26 57 c22 46 26 72 27 137 0 71 -4 88 -33
147 -38 77 -92 130 -171 166 -46 21 -71 26 -138 26 l-83 0 0 33 c0 18 -9 57
-20 87 -76 203 -308 283 -495 170 -32 -19 -66 -32 -75 -29 -9 3 -26 27 -38 53
-34 75 -85 127 -160 164 -59 29 -76 33 -147 33 -71 0 -89 -4 -148 -33 -44 -22
-81 -50 -109 -82 l-42 -49 -48 54 c-64 71 -136 105 -232 111 -44 2 -87 -1
-113 -10z m182 -185 c17 -9 41 -38 55 -63 45 -83 53 -88 139 -88 99 1 124 13
163 80 86 145 267 123 314 -37 9 -29 24 -62 34 -71 19 -18 172 -72 203 -72 9
0 39 20 67 45 89 79 174 83 247 11 49 -49 62 -98 45 -163 -22 -79 -16 -107 28
-147 49 -44 84 -46 147 -9 104 61 223 15 253 -98 15 -55 -3 -114 -51 -166 -46
-50 -50 -84 -18 -150 24 -49 36 -58 104 -73 63 -14 99 -41 124 -93 34 -71 23
-130 -41 -201 l-41 -47 6 -85 6 -84 -1446 0 -1446 0 7 66 c4 37 13 98 21 136
23 108 22 114 -40 173 -59 57 -75 87 -75 141 0 71 38 125 114 161 22 10 48 30
59 45 18 24 19 32 9 66 -7 22 -12 54 -12 71 0 103 104 185 205 161 60 -14 71
-12 104 16 26 21 31 33 31 68 0 135 143 220 255 151 63 -38 86 -46 116 -40 51
11 64 39 61 122 -2 61 1 81 20 114 47 83 146 109 233 60z m-2096 -1358 c62
-247 114 -456 117 -465 5 -16 -3 -18 -74 -18 l-80 0 -88 358 c-69 277 -94 362
-111 380 -22 22 -25 22 -298 22 l-275 0 0 85 0 85 349 0 349 0 111 -447z
m2011 -350 c0 -16 13 -539 30 -1163 16 -624 32 -1236 35 -1360 3 -124 8 -291
11 -373 l6 -147 -173 2 -174 3 -42 525 c-22 289 -75 959 -117 1490 -41 531
-78 984 -81 1008 l-5 42 255 0 255 0 0 -27z m1350 0 c0 -37 -228 -2946 -236
-3001 l-5 -42 -170 0 -169 0 0 38 c-1 86 71 2817 76 2920 l6 112 249 0 249 0
0 -27z m-2460 -398 l0 -85 -84 0 -85 0 -3 -47 -3 -48 -82 -3 -83 -3 0 51 0 50
-175 0 -175 0 0 -50 0 -51 -82 3 -83 3 -3 48 -3 47 -170 0 -169 0 0 -45 0 -45
-85 0 -85 0 0 45 0 45 -170 0 -170 0 0 85 0 85 855 0 855 0 0 -85z m-311
-1210 l143 -47 -6 -32 c-2 -17 -8 -80 -11 -141 -4 -60 -9 -117 -11 -126 -4
-15 -19 -12 -122 22 -133 44 -216 50 -317 23 -80 -20 -133 -53 -224 -137 -130
-121 -171 -130 -431 -92 -102 14 -192 28 -201 31 -13 4 -18 26 -23 122 -4 64
-9 132 -13 149 l-5 33 58 -35 c82 -50 124 -60 239 -60 131 1 185 22 324 128
224 171 247 187 286 202 67 25 154 14 314 -40z"/>
</g>
</svg>
