<?xml version="1.0" standalone="no"?>
<!DOCTYPE svg PUBLIC "-//W3C//DTD SVG 20010904//EN"
 "http://www.w3.org/TR/2001/REC-SVG-20010904/DTD/svg10.dtd">
<svg version="1.0" xmlns="http://www.w3.org/2000/svg"
 width="512.000000pt" height="512.000000pt" viewBox="0 0 512.000000 512.000000"
 preserveAspectRatio="xMidYMid meet">

<g transform="translate(0.000000,512.000000) scale(0.100000,-0.100000)"
fill="#000000" stroke="none">
<path d="M2740 4939 c-469 -58 -870 -348 -1070 -773 -96 -203 -125 -335 -125
-576 0 -205 9 -267 61 -428 92 -282 286 -542 525 -702 52 -34 96 -64 98 -66 2
-2 -242 -4 -543 -4 l-547 0 49 58 c68 78 100 132 135 227 39 103 48 269 23
380 -72 307 -347 525 -663 525 -299 0 -554 -186 -650 -475 -23 -69 -27 -96
-27 -205 0 -108 4 -136 27 -205 14 -44 42 -107 62 -140 50 -84 157 -189 242
-239 l72 -43 -24 -23 c-40 -38 -86 -115 -106 -181 -18 -57 -19 -101 -19 -704
0 -598 1 -647 18 -703 52 -165 193 -285 367 -312 48 -7 495 -10 1410 -8 l1340
3 57 23 c83 33 146 80 201 147 65 82 90 149 95 262 2 51 8 93 13 93 5 0 289
-158 631 -350 343 -193 633 -350 646 -350 13 0 37 13 53 29 l29 29 0 1137 0
1137 -29 29 c-33 33 -58 36 -104 13 -18 -9 -301 -171 -630 -360 -328 -189
-599 -344 -601 -344 -2 0 -6 48 -8 108 -4 92 -9 116 -35 172 -36 78 -115 168
-177 201 -26 13 -46 27 -46 30 0 3 17 13 38 23 144 68 361 253 469 400 105
142 193 335 235 515 29 127 36 377 14 512 -107 646 -650 1123 -1304 1144 -70
2 -161 0 -202 -6z m225 -518 c104 -47 137 -169 69 -258 -114 -149 -357 -15
-290 161 20 52 51 83 103 101 51 19 70 18 118 -4z m-682 -595 c44 -18 95 -78
103 -121 19 -104 -64 -205 -169 -205 -52 0 -119 39 -144 85 -78 139 64 302
210 241z m1388 -99 c99 -67 107 -203 16 -278 -50 -41 -141 -43 -199 -5 -76 50
-96 173 -39 243 53 65 157 84 222 40z m-686 -680 c107 -60 111 -217 8 -287
-54 -37 -136 -35 -187 3 -49 38 -68 69 -73 121 -16 135 133 230 252 163z
m-2276 -68 c88 -31 67 -158 -27 -159 -94 -1 -111 130 -22 163 8 3 15 6 16 6 1
1 15 -4 33 -10z m4237 -2407 c-3 -2 -59 26 -125 63 l-121 67 2 740 3 741 120
68 120 69 3 -872 c1 -479 0 -873 -2 -876z m-1531 1614 c62 -28 111 -77 139
-136 21 -44 21 -57 24 -664 3 -703 4 -692 -71 -773 -23 -25 -64 -57 -92 -69
-50 -24 -52 -24 -445 -24 l-395 0 -395 50 c-217 28 -434 57 -482 65 -189 33
-409 114 -562 208 -155 96 -205 86 424 87 349 0 569 4 592 10 69 19 92 97 43
145 l-24 25 -688 0 -689 0 -41 43 c-104 109 -199 247 -275 402 l-49 100 3 175
c3 154 6 181 24 220 28 59 77 108 139 136 l50 24 1360 0 1360 0 50 -24z m1105
-256 l0 -141 -82 3 -83 3 -3 65 c-5 111 -1 120 81 167 39 23 75 42 80 42 4 1
7 -62 7 -139z m-342 -710 l-3 -221 -98 67 c-116 79 -197 156 -266 255 l-51 72
0 123 0 122 208 120 207 120 3 -219 c1 -120 1 -318 0 -439z m342 315 l0 -85
-85 0 -85 0 0 85 0 85 85 0 85 0 0 -85z m0 -340 l0 -85 -85 0 -85 0 0 85 0 85
85 0 85 0 0 -85z m0 -345 l0 -91 -82 3 -83 3 -3 88 -3 87 86 0 85 0 0 -90z"/>
<path d="M733 1786 c-59 -26 -72 -95 -27 -140 l27 -26 717 0 717 0 27 26 c34
35 35 83 2 121 l-24 28 -704 2 c-583 2 -708 0 -735 -11z"/>
<path d="M2455 1793 c-65 -17 -88 -101 -40 -148 23 -24 30 -25 145 -25 115 0
122 1 145 25 35 34 34 93 -1 126 -23 21 -35 24 -127 26 -56 1 -111 -1 -122 -4z"/>
<path d="M743 1449 c-64 -18 -84 -94 -38 -143 l24 -26 721 0 721 0 24 25 c49
48 26 126 -43 145 -47 13 -1363 12 -1409 -1z"/>
<path d="M2415 1425 c-17 -16 -25 -35 -25 -60 0 -25 8 -44 25 -60 23 -24 30
-25 145 -25 115 0 122 1 145 25 17 16 25 35 25 60 0 25 -8 44 -25 60 -23 24
-30 25 -145 25 -115 0 -122 -1 -145 -25z"/>
<path d="M2415 1085 c-35 -34 -34 -93 1 -126 24 -23 32 -24 144 -24 112 0 120
1 144 24 35 33 36 92 1 126 -23 24 -30 25 -145 25 -115 0 -122 -1 -145 -25z"/>
</g>
</svg>
