<svg id="svg" version="1.1" xmlns="http://www.w3.org/2000/svg" xmlns:xlink="http://www.w3.org/1999/xlink" width="400" height="400" viewBox="0, 0, 400,400"><g id="svgg"><path id="path0" d="M13.467 13.467 C 13.048 13.886,13.146 124.000,13.565 124.000 C 14.627 124.000,28.325 106.853,31.055 102.107 C 31.658 101.058,32.808 99.210,33.610 98.000 C 34.413 96.790,35.728 94.585,36.534 93.100 C 37.341 91.615,38.615 89.275,39.367 87.900 C 41.502 83.994,45.479 74.751,47.671 68.600 C 49.765 62.725,49.865 62.408,51.141 57.600 C 52.888 51.017,53.110 50.104,53.577 47.600 C 53.843 46.170,54.213 44.190,54.400 43.200 C 55.084 39.574,55.578 36.526,55.988 33.400 C 56.219 31.640,56.765 27.635,57.201 24.500 C 57.637 21.366,58.111 17.541,58.255 16.000 L 58.515 13.200 36.124 13.200 C 23.809 13.200,13.613 13.320,13.467 13.467 M72.629 14.227 C 72.487 14.791,72.198 16.501,71.986 18.027 C 71.429 22.030,70.420 28.871,69.600 34.200 C 69.380 35.630,69.030 37.925,68.822 39.300 C 68.613 40.675,68.253 42.790,68.021 44.000 C 67.789 45.210,67.424 47.280,67.210 48.600 C 64.790 63.532,53.909 91.967,46.753 102.062 C 46.339 102.646,46.000 103.229,46.000 103.358 C 46.000 104.383,35.377 119.494,32.000 123.271 C 30.964 124.430,29.824 126.556,30.442 126.176 C 50.969 113.569,70.226 90.654,80.173 67.000 C 81.190 64.580,82.188 62.240,82.390 61.800 C 83.400 59.598,87.101 47.415,87.797 44.000 C 87.954 43.230,88.238 41.880,88.428 41.000 C 89.622 35.475,92.561 14.597,92.256 13.803 C 92.059 13.289,90.612 13.200,82.456 13.200 L 72.887 13.200 72.629 14.227 M307.751 13.784 C 307.393 14.715,310.514 35.971,312.001 42.729 C 313.610 50.044,317.445 62.357,318.433 63.380 C 318.635 63.589,318.800 63.989,318.800 64.270 C 318.800 65.404,324.429 76.863,327.491 81.962 C 330.440 86.872,337.141 96.276,340.130 99.697 C 347.228 107.824,350.955 111.568,357.000 116.646 C 361.986 120.834,369.943 126.590,370.281 126.253 C 370.420 126.114,370.323 126.000,370.067 126.000 C 369.810 126.000,369.600 125.809,369.600 125.576 C 369.600 125.342,368.197 123.407,366.483 121.276 C 349.298 99.908,337.278 73.316,332.368 45.800 C 332.132 44.480,331.786 42.590,331.599 41.600 C 331.412 40.610,331.056 38.360,330.809 36.600 C 330.561 34.840,330.199 32.410,330.004 31.200 C 329.809 29.990,329.458 27.695,329.225 26.100 C 328.348 20.113,327.914 17.339,327.534 15.300 L 327.143 13.200 317.559 13.200 C 309.529 13.200,307.939 13.295,307.751 13.784 M341.600 14.211 C 341.600 19.729,346.100 47.576,348.353 56.000 C 349.029 58.530,349.692 61.050,349.825 61.600 C 349.958 62.150,350.220 62.960,350.407 63.400 C 350.594 63.840,351.131 65.370,351.600 66.800 C 352.069 68.230,352.603 69.760,352.786 70.200 C 352.969 70.640,353.339 71.630,353.607 72.400 C 354.127 73.894,354.592 75.020,356.003 78.200 C 356.492 79.300,357.246 81.010,357.680 82.000 C 360.416 88.247,368.197 101.878,371.494 106.201 C 371.662 106.422,373.226 108.492,374.968 110.801 C 378.554 115.554,385.896 124.000,386.442 124.000 C 386.655 124.000,386.761 101.358,386.701 68.700 L 386.600 13.400 364.100 13.297 L 341.600 13.193 341.600 14.211 M28.400 150.345 C 28.400 150.535,28.962 151.390,29.649 152.245 C 37.661 162.222,43.677 176.298,45.597 189.559 C 45.833 191.186,46.120 192.671,46.236 192.859 C 46.722 193.645,64.800 193.262,64.800 192.466 C 64.800 191.495,63.366 187.061,62.321 184.800 C 61.863 183.810,61.225 182.370,60.903 181.600 C 60.081 179.637,56.309 173.285,54.941 171.562 C 54.314 170.771,53.350 169.511,52.800 168.762 C 48.492 162.895,39.532 155.595,31.645 151.525 C 28.398 149.850,28.400 149.850,28.400 150.345 M369.000 151.557 C 358.436 157.146,348.949 166.131,342.767 176.400 C 340.224 180.625,338.110 185.194,336.661 189.599 C 335.383 193.483,334.730 193.200,344.975 193.200 L 353.902 193.200 354.395 189.900 C 356.460 176.070,362.483 162.236,370.660 152.536 C 373.248 149.467,373.107 149.384,369.000 151.557 M13.418 154.808 C 13.294 155.134,13.238 163.860,13.296 174.200 L 13.400 193.000 22.591 193.108 C 33.611 193.237,32.768 193.460,32.315 190.536 C 30.142 176.500,25.168 166.121,16.154 156.808 C 14.338 154.932,13.583 154.380,13.418 154.808 M383.933 157.100 C 375.608 165.850,368.898 179.751,367.809 190.507 L 367.535 193.215 377.067 193.107 L 386.600 193.000 386.704 173.900 C 386.761 163.395,386.653 154.800,386.465 154.800 C 386.276 154.800,385.137 155.835,383.933 157.100 M80.933 234.897 C 80.262 236.096,80.194 237.675,80.083 254.650 L 79.963 273.100 87.089 273.268 L 94.216 273.436 97.518 274.986 L 100.821 276.536 102.373 275.663 C 105.889 273.687,106.940 273.514,117.000 273.251 L 126.600 273.000 126.600 254.800 C 126.600 237.156,126.575 236.557,125.778 235.200 L 124.955 233.800 103.309 233.697 L 81.662 233.593 80.933 234.897 M141.696 234.500 C 140.065 236.242,140.000 237.038,140.000 255.385 L 140.000 273.118 149.700 273.285 C 160.259 273.466,161.627 273.724,165.215 276.210 L 166.728 277.259 168.312 276.211 C 172.095 273.707,173.334 273.478,184.100 273.286 L 194.000 273.111 193.998 255.655 C 193.995 237.132,193.878 235.791,192.132 234.418 C 191.110 233.614,190.666 233.600,166.816 233.600 L 142.539 233.600 141.696 234.500 M208.451 234.438 C 206.870 235.911,206.800 236.790,206.800 255.185 L 206.800 273.118 216.500 273.285 C 227.059 273.466,228.643 273.765,231.795 276.169 L 233.142 277.196 236.271 275.577 C 240.236 273.524,242.356 273.218,252.700 273.208 L 260.800 273.200 260.798 255.700 C 260.795 236.889,260.689 235.745,258.824 234.417 C 256.998 233.117,209.848 233.137,208.451 234.438 M274.396 234.900 C 273.636 236.146,273.603 236.963,273.601 254.655 L 273.600 273.109 283.300 273.298 C 293.501 273.497,295.295 273.793,298.796 275.861 C 299.966 276.553,300.020 276.544,302.603 275.258 C 305.872 273.631,308.424 273.205,314.915 273.202 L 320.030 273.200 319.915 254.700 C 319.810 237.866,319.736 236.083,319.090 234.900 L 318.379 233.600 296.784 233.600 L 275.188 233.600 274.396 234.900 M48.556 287.106 C 46.856 288.231,46.787 289.114,46.896 308.288 L 47.000 326.600 54.200 326.816 C 61.333 327.030,61.423 327.044,63.889 328.316 C 66.960 329.901,67.092 329.900,70.341 328.300 L 72.980 327.000 82.990 326.800 L 93.000 326.600 93.104 308.292 C 93.205 290.573,93.182 289.933,92.396 288.392 L 91.584 286.800 70.292 286.806 C 58.581 286.809,48.800 286.944,48.556 287.106 M108.664 287.621 C 106.852 289.047,106.756 290.200,106.882 309.000 L 107.000 326.600 117.000 326.802 C 127.778 327.019,128.591 327.173,132.067 329.648 C 133.250 330.490,133.341 330.498,134.350 329.839 C 138.475 327.144,139.056 327.031,149.400 326.903 C 154.680 326.837,159.412 326.692,159.915 326.580 L 160.831 326.377 160.715 308.289 C 160.589 288.450,160.577 288.356,158.115 287.234 C 156.068 286.301,109.882 286.663,108.664 287.621 M175.582 287.313 C 173.557 288.908,173.600 288.456,173.600 308.259 L 173.600 326.739 183.710 326.870 L 193.820 327.000 196.510 328.325 C 197.990 329.054,199.200 329.819,199.200 330.025 C 199.200 330.722,200.363 330.406,202.286 329.186 C 205.680 327.033,207.185 326.800,217.673 326.800 L 227.200 326.800 227.200 308.147 L 227.200 289.494 225.772 288.147 L 224.343 286.800 200.272 286.813 C 181.971 286.822,176.052 286.942,175.582 287.313 M241.913 287.702 C 240.053 289.238,240.000 289.815,240.000 308.618 L 240.000 326.385 240.900 326.584 C 241.395 326.694,246.030 326.832,251.200 326.892 L 260.600 327.000 262.800 328.132 C 264.010 328.754,265.329 329.559,265.731 329.921 C 266.410 330.533,266.550 330.527,267.731 329.837 C 272.808 326.865,272.013 327.019,283.400 326.800 L 293.800 326.600 293.917 309.600 C 294.052 290.130,294.005 289.499,292.322 287.927 L 291.115 286.800 267.058 286.802 L 243.000 286.804 241.913 287.702 M307.575 288.563 C 306.830 290.249,306.797 291.208,306.896 308.467 L 307.000 326.600 317.000 326.800 L 327.000 327.000 329.745 328.300 C 331.255 329.015,332.824 329.600,333.233 329.600 C 333.642 329.600,335.106 329.015,336.488 328.300 C 338.979 327.011,339.058 326.998,346.000 326.800 L 353.000 326.600 353.104 308.302 C 353.200 291.507,353.150 289.880,352.501 288.502 L 351.794 287.000 330.076 286.897 L 308.358 286.793 307.575 288.563 M14.901 340.897 C 13.283 342.628,13.169 344.400,13.287 366.000 L 13.400 386.600 36.600 386.600 L 59.800 386.600 59.903 365.192 L 60.007 343.783 59.103 341.992 L 58.200 340.200 36.973 340.097 L 15.746 339.993 14.901 340.897 M76.149 340.394 C 73.540 341.448,73.600 340.871,73.600 364.962 L 73.600 386.800 99.976 386.800 C 114.483 386.800,126.438 386.662,126.542 386.494 C 126.646 386.325,126.863 376.646,127.024 364.986 C 127.347 341.516,127.385 341.937,124.813 340.607 C 123.486 339.920,77.817 339.721,76.149 340.394 M142.552 340.465 C 139.989 341.707,139.983 341.770,140.096 365.261 L 140.200 386.600 166.593 386.600 L 192.986 386.600 193.247 385.000 C 193.390 384.120,193.573 374.251,193.654 363.070 L 193.800 342.739 192.306 341.370 L 190.812 340.000 167.106 340.027 C 151.765 340.045,143.101 340.199,142.552 340.465 M209.153 340.601 C 206.781 341.890,206.783 341.873,206.896 365.268 L 207.000 386.600 233.500 386.703 L 260.000 386.806 260.022 383.703 C 260.033 381.996,260.192 372.500,260.374 362.600 C 260.739 342.737,260.713 342.443,258.441 340.915 L 257.082 340.000 233.641 340.016 C 214.148 340.029,210.024 340.128,209.153 340.601 M276.149 340.394 C 273.540 341.448,273.600 340.871,273.600 364.962 L 273.600 386.800 299.976 386.800 C 314.483 386.800,326.438 386.662,326.542 386.494 C 326.646 386.325,326.863 376.646,327.024 364.986 C 327.347 341.516,327.385 341.937,324.813 340.607 C 323.486 339.920,277.817 339.721,276.149 340.394 M341.195 341.300 C 339.978 343.295,339.963 343.627,340.085 365.800 L 340.200 386.600 363.400 386.600 L 386.600 386.600 386.704 365.614 C 386.814 343.159,386.682 341.407,384.793 340.396 C 384.331 340.149,376.142 340.000,363.020 340.000 L 341.988 340.000 341.195 341.300 " stroke="none" fill="#d92245" fill-rule="evenodd"></path><path id="path1" d="M106.047 15.377 C 105.801 16.355,105.600 17.739,105.600 18.453 C 105.600 19.167,105.425 20.753,105.211 21.976 C 104.997 23.199,104.631 25.820,104.397 27.800 C 102.637 42.725,99.409 56.134,94.721 68.000 C 92.316 74.086,88.734 81.720,85.950 86.694 C 82.674 92.545,75.687 103.130,73.998 104.800 C 73.886 104.910,73.304 105.659,72.704 106.465 C 72.103 107.271,71.384 108.176,71.106 108.475 C 70.828 108.774,69.621 110.185,68.424 111.610 C 63.051 118.006,53.534 126.893,46.000 132.549 C 43.470 134.448,40.950 136.359,40.400 136.796 C 39.850 137.232,39.266 137.592,39.103 137.595 C 38.077 137.613,36.832 139.347,37.506 139.818 C 38.825 140.739,41.803 142.436,42.500 142.664 C 42.885 142.790,43.200 143.052,43.200 143.247 C 43.200 143.441,43.436 143.600,43.725 143.600 C 44.013 143.600,44.598 143.922,45.025 144.317 C 45.451 144.711,46.700 145.648,47.800 146.398 C 57.137 152.772,67.964 165.454,72.474 175.300 C 72.852 176.125,73.403 176.800,73.700 176.800 C 74.160 176.800,83.045 175.510,93.000 173.997 C 99.230 173.051,100.734 172.829,103.800 172.403 C 105.560 172.159,107.990 171.797,109.200 171.600 C 110.410 171.403,112.840 171.043,114.600 170.800 C 116.360 170.557,118.790 170.197,120.000 170.000 C 121.210 169.803,123.640 169.443,125.400 169.200 C 127.160 168.957,129.590 168.597,130.800 168.400 C 132.010 168.203,134.440 167.841,136.200 167.597 C 137.960 167.352,140.525 166.983,141.900 166.776 C 153.235 165.070,154.735 164.847,163.400 163.579 C 173.072 162.164,185.368 159.842,193.200 157.953 C 202.485 155.713,203.839 155.364,207.000 154.393 C 208.540 153.921,210.340 153.384,211.000 153.200 C 215.289 152.006,222.630 149.588,228.000 147.600 C 229.870 146.908,232.660 145.880,234.200 145.316 C 235.740 144.752,239.700 143.138,243.000 141.729 C 246.300 140.320,249.720 138.864,250.600 138.494 C 253.000 137.484,271.100 128.305,273.421 126.920 C 274.533 126.257,276.243 125.264,277.221 124.714 C 283.719 121.059,286.407 119.386,298.200 111.653 C 303.455 108.206,319.200 96.096,319.200 95.499 C 319.200 95.295,318.140 93.389,316.845 91.264 C 315.549 89.139,313.870 86.230,313.113 84.800 C 312.356 83.370,311.531 81.840,311.281 81.400 C 310.878 80.695,309.395 77.503,307.469 73.200 C 304.340 66.211,300.785 55.477,299.122 48.000 C 298.902 47.010,298.557 45.480,298.356 44.600 C 297.645 41.489,296.590 35.276,296.012 30.800 C 295.799 29.150,295.434 26.360,295.202 24.600 C 294.969 22.840,294.619 19.960,294.424 18.200 C 294.229 16.440,293.945 14.685,293.792 14.300 C 293.529 13.636,288.689 13.600,200.005 13.600 L 106.495 13.600 106.047 15.377 " stroke="none" fill="#7bcbcb" fill-rule="evenodd"></path><path id="path2" d="M199.977 13.500 C 274.045 13.581,293.427 13.705,293.707 14.101 C 293.969 14.470,294.018 14.443,293.897 14.000 C 293.752 13.469,282.997 13.400,200.167 13.399 L 106.600 13.397 199.977 13.500 M319.200 95.484 C 319.200 96.094,303.541 108.151,298.200 111.653 C 286.407 119.386,283.719 121.059,277.221 124.714 C 276.243 125.264,274.533 126.257,273.421 126.920 C 271.100 128.305,253.000 137.484,250.600 138.494 C 249.720 138.864,246.300 140.320,243.000 141.729 C 239.700 143.138,235.740 144.752,234.200 145.316 C 232.660 145.880,229.870 146.908,228.000 147.600 C 222.630 149.588,215.289 152.006,211.000 153.200 C 210.340 153.384,208.540 153.921,207.000 154.393 C 203.839 155.364,202.485 155.713,193.200 157.953 C 185.368 159.842,173.072 162.164,163.400 163.579 C 154.735 164.847,153.235 165.070,141.900 166.776 C 140.525 166.983,137.960 167.352,136.200 167.597 C 134.440 167.841,132.010 168.203,130.800 168.400 C 129.590 168.597,127.160 168.957,125.400 169.200 C 123.640 169.443,121.210 169.803,120.000 170.000 C 118.790 170.197,116.360 170.557,114.600 170.800 C 112.840 171.043,110.410 171.403,109.200 171.600 C 107.990 171.797,105.560 172.159,103.800 172.403 C 100.725 172.830,99.130 173.066,93.000 173.998 C 79.428 176.062,73.825 176.818,73.381 176.648 C 72.974 176.492,72.989 176.730,73.446 177.724 C 73.770 178.426,74.138 179.315,74.264 179.700 C 74.482 180.365,80.818 180.400,199.947 180.393 L 325.400 180.386 326.250 178.493 C 327.675 175.323,328.390 173.855,329.121 172.600 C 329.505 171.940,330.347 170.500,330.991 169.400 C 336.898 159.314,349.489 147.163,359.838 141.563 C 363.968 139.328,363.948 139.405,360.900 137.403 C 346.645 128.043,332.899 114.451,321.734 98.677 C 320.340 96.708,319.200 95.271,319.200 95.484 M63.381 116.900 L 61.800 118.600 63.500 117.019 C 65.081 115.548,65.384 115.200,65.081 115.200 C 65.016 115.200,64.251 115.965,63.381 116.900 M58.383 155.700 C 59.364 156.745,60.219 157.600,60.283 157.600 C 60.584 157.600,60.266 157.241,58.500 155.583 L 56.600 153.800 58.383 155.700 " stroke="none" fill="#2bb3cb" fill-rule="evenodd"></path><path id="path3" d="M1.357 1.363 L -0.006 2.726 0.097 103.729 L 0.200 204.733 1.200 205.602 C 3.573 207.663,2.336 207.600,40.225 207.600 C 63.345 207.600,75.638 207.462,75.800 207.200 C 75.936 206.980,76.397 206.800,76.824 206.800 C 77.251 206.800,77.600 206.632,77.600 206.427 C 77.600 206.222,77.960 205.940,78.400 205.800 C 78.840 205.660,79.200 205.288,79.200 204.973 C 79.200 204.658,79.380 204.400,79.600 204.400 C 79.820 204.400,80.000 203.961,80.000 203.424 C 80.000 202.887,80.180 202.336,80.400 202.200 C 80.620 202.064,80.800 200.804,80.800 199.400 C 80.800 197.996,80.620 196.736,80.400 196.600 C 80.180 196.464,80.000 195.823,80.000 195.176 L 80.000 194.000 200.000 194.000 L 320.000 194.000 320.000 195.600 C 320.000 196.480,319.820 197.200,319.600 197.200 C 319.371 197.200,319.200 198.400,319.200 200.000 C 319.200 201.600,319.371 202.800,319.600 202.800 C 319.820 202.800,320.000 203.158,320.000 203.595 C 320.000 204.676,321.099 205.909,322.884 206.832 C 324.935 207.893,393.239 208.044,395.754 206.993 C 398.127 206.002,399.451 204.310,399.741 201.899 C 399.880 200.744,399.995 154.845,399.997 99.900 L 400.000 0.000 201.360 0.000 L 2.720 0.000 1.357 1.363 M58.562 14.800 C 58.541 15.570,58.310 17.730,58.047 19.600 C 57.587 22.878,57.231 25.523,56.418 31.700 C 56.015 34.765,55.430 38.485,54.831 41.800 C 54.632 42.900,54.273 44.970,54.033 46.400 C 53.793 47.830,53.406 49.720,53.172 50.600 C 52.938 51.480,52.593 52.830,52.405 53.600 C 51.171 58.655,50.252 61.750,48.304 67.415 C 47.090 70.944,45.715 74.679,45.249 75.715 C 43.918 78.671,42.768 81.276,42.122 82.800 C 41.428 84.438,40.938 85.410,39.299 88.400 C 38.636 89.610,37.472 91.770,36.711 93.200 C 31.961 102.136,15.417 124.400,13.528 124.400 C 13.347 124.400,13.200 99.379,13.200 68.797 L 13.200 13.193 35.900 13.297 L 58.600 13.400 58.562 14.800 M92.623 15.300 C 92.485 16.455,92.205 18.480,92.001 19.800 C 91.797 21.120,91.443 23.505,91.215 25.100 C 89.619 36.258,88.766 41.180,87.969 43.828 C 87.766 44.504,87.600 45.309,87.600 45.617 C 87.600 47.019,83.545 59.564,81.359 64.924 C 79.664 69.080,76.267 76.162,74.463 79.300 C 73.988 80.125,73.243 81.431,72.806 82.202 C 66.780 92.837,54.236 107.874,45.000 115.532 C 43.240 116.991,41.710 118.282,41.600 118.400 C 40.737 119.326,30.264 126.800,29.828 126.800 C 29.151 126.800,29.914 125.564,32.753 122.058 C 34.488 119.916,36.973 116.642,38.276 114.782 C 39.580 112.922,41.311 110.457,42.123 109.304 C 42.935 108.151,43.600 107.104,43.600 106.976 C 43.600 106.849,44.140 105.959,44.800 105.000 C 45.460 104.041,46.000 103.167,46.000 103.057 C 46.000 102.948,46.858 101.451,47.908 99.729 C 50.160 96.035,54.587 87.101,56.632 82.125 C 57.428 80.186,58.317 78.060,58.607 77.400 C 58.897 76.740,59.517 75.030,59.986 73.600 C 60.454 72.170,61.009 70.687,61.219 70.305 C 61.429 69.923,61.600 69.336,61.600 69.000 C 61.600 68.664,61.763 68.077,61.963 67.695 C 62.405 66.849,63.555 63.184,64.064 61.000 C 64.511 59.079,64.996 57.160,65.578 55.000 C 66.074 53.164,66.679 50.330,67.223 47.300 C 67.430 46.145,67.791 44.165,68.023 42.900 C 68.256 41.635,68.602 39.520,68.791 38.200 C 68.981 36.880,69.327 34.540,69.560 33.000 C 69.793 31.460,70.523 26.546,71.180 22.081 C 71.838 17.615,72.482 13.790,72.612 13.581 C 72.751 13.356,76.953 13.200,82.861 13.200 L 92.875 13.200 92.623 15.300 M294.891 16.000 C 295.406 20.606,296.571 29.549,297.209 33.800 C 297.407 35.120,297.744 37.370,297.958 38.800 C 298.172 40.230,298.460 41.850,298.598 42.400 C 298.736 42.950,299.018 44.165,299.225 45.100 C 299.967 48.462,300.506 50.646,301.273 53.400 C 302.263 56.956,304.712 64.719,305.216 65.900 C 305.571 66.733,305.780 67.247,306.759 69.700 C 307.377 71.248,308.464 73.752,309.044 74.961 C 309.350 75.600,309.600 76.365,309.600 76.661 C 309.600 76.958,309.780 77.200,310.000 77.200 C 310.220 77.200,310.400 77.453,310.400 77.762 C 310.400 78.285,311.946 81.553,312.405 82.000 C 312.518 82.110,313.051 83.100,313.590 84.200 C 314.128 85.300,315.071 86.952,315.684 87.872 C 316.298 88.792,316.800 89.625,316.800 89.724 C 316.800 90.476,325.673 103.682,327.199 105.200 C 327.310 105.310,328.025 106.210,328.788 107.200 C 332.391 111.870,341.418 121.333,345.831 125.066 C 346.914 125.982,348.340 127.206,349.000 127.786 C 349.660 128.366,351.550 129.857,353.200 131.100 C 354.850 132.343,356.290 133.465,356.400 133.594 C 356.510 133.723,358.186 134.897,360.125 136.203 C 364.941 139.448,364.876 139.283,362.001 140.968 C 360.657 141.756,359.469 142.400,359.361 142.400 C 357.999 142.400,346.470 151.591,341.985 156.251 C 337.020 161.410,329.200 172.259,329.200 173.988 C 329.200 174.215,329.020 174.400,328.800 174.400 C 328.580 174.400,328.400 174.760,328.400 175.200 C 328.400 175.640,328.220 176.000,328.000 176.000 C 327.780 176.000,327.600 176.253,327.600 176.562 C 327.600 177.247,325.955 180.486,325.400 180.894 C 324.877 181.278,75.123 181.278,74.600 180.894 C 74.045 180.486,72.400 177.247,72.400 176.562 C 72.400 176.253,72.220 176.000,72.000 176.000 C 71.780 176.000,71.600 175.753,71.600 175.451 C 71.600 174.689,67.597 168.091,64.653 164.000 C 61.728 159.935,55.745 153.641,51.600 150.269 C 49.950 148.927,48.510 147.718,48.400 147.582 C 48.081 147.189,42.248 143.325,40.547 142.380 C 39.696 141.907,38.325 141.145,37.500 140.686 C 35.386 139.512,35.564 139.132,39.444 136.519 C 41.338 135.243,43.093 134.014,43.344 133.786 C 43.595 133.559,45.150 132.353,46.800 131.106 C 48.450 129.860,50.340 128.366,51.000 127.786 C 51.660 127.206,53.088 125.982,54.173 125.066 C 58.732 121.218,67.402 112.115,71.192 107.200 C 71.955 106.210,72.683 105.310,72.809 105.200 C 72.935 105.090,73.474 104.370,74.006 103.600 C 74.538 102.830,75.160 101.995,75.387 101.745 C 76.465 100.556,77.200 99.564,77.200 99.295 C 77.201 99.133,77.651 98.477,78.200 97.838 C 78.750 97.199,79.200 96.536,79.200 96.366 C 79.200 96.196,79.431 95.819,79.712 95.529 C 80.296 94.926,84.127 88.541,85.969 85.100 C 86.646 83.835,87.740 81.792,88.400 80.559 C 89.060 79.327,89.600 78.067,89.600 77.759 C 89.600 77.452,89.780 77.200,90.000 77.200 C 90.220 77.200,90.400 76.947,90.400 76.638 C 90.400 76.153,90.952 74.880,92.450 71.905 C 92.643 71.523,92.800 70.938,92.800 70.605 C 92.800 70.272,92.980 70.000,93.200 70.000 C 93.420 70.000,93.600 69.674,93.600 69.275 C 93.600 68.876,93.960 67.805,94.400 66.894 C 94.840 65.984,95.200 65.048,95.200 64.814 C 95.200 64.580,95.365 64.077,95.566 63.695 C 96.236 62.422,99.563 51.093,100.411 47.200 C 100.674 45.990,101.047 44.280,101.239 43.400 C 101.749 41.065,102.880 33.809,103.608 28.200 C 103.836 26.440,104.198 23.650,104.412 22.000 C 104.626 20.350,104.903 17.920,105.028 16.600 C 105.153 15.280,105.327 13.975,105.415 13.699 C 105.543 13.300,124.675 13.219,200.088 13.299 L 294.600 13.400 294.891 16.000 M327.664 14.600 C 327.840 15.260,328.166 17.060,328.387 18.600 C 329.661 27.483,331.621 40.506,331.968 42.400 C 333.543 50.989,334.095 53.617,335.327 58.400 C 337.129 65.390,340.290 74.891,342.580 80.200 C 342.865 80.860,343.597 82.570,344.206 84.000 C 345.855 87.867,350.650 97.367,352.436 100.307 C 353.296 101.723,354.000 102.966,354.000 103.069 C 354.000 103.172,354.495 104.011,355.100 104.935 C 355.705 105.858,356.380 106.903,356.600 107.258 C 358.345 110.071,364.191 118.184,367.024 121.724 C 371.238 126.989,371.107 127.296,366.096 123.898 C 355.122 116.454,342.812 104.304,334.589 92.800 C 332.623 90.050,330.903 87.710,330.765 87.600 C 330.460 87.356,327.586 82.674,325.732 79.400 C 321.349 71.664,316.038 58.969,313.934 51.200 C 313.726 50.430,313.371 49.170,313.147 48.400 C 312.923 47.630,312.583 46.280,312.392 45.400 C 312.200 44.520,311.852 42.990,311.617 42.000 C 310.922 39.068,309.907 32.820,308.400 22.200 C 307.434 15.395,307.264 13.821,307.456 13.509 C 307.566 13.331,312.085 13.234,317.499 13.293 L 327.343 13.400 327.664 14.600 M386.800 68.800 C 386.800 99.380,386.662 124.400,386.493 124.400 C 386.324 124.400,385.109 123.189,383.793 121.708 C 382.477 120.227,380.674 118.202,379.786 117.208 C 378.898 116.214,377.368 114.320,376.387 113.000 C 375.405 111.680,374.512 110.510,374.401 110.400 C 373.162 109.167,366.524 99.282,364.596 95.800 C 361.890 90.911,361.124 89.476,359.469 86.200 C 356.327 79.981,353.543 73.209,350.588 64.600 C 349.283 60.796,346.711 50.792,345.961 46.600 C 345.725 45.280,345.369 43.300,345.170 42.200 C 344.600 39.052,344.015 35.180,343.780 33.000 C 343.661 31.900,343.403 30.010,343.206 28.800 C 343.009 27.590,342.643 24.980,342.393 23.000 C 342.144 21.020,341.758 18.192,341.536 16.716 C 341.314 15.240,341.249 13.845,341.390 13.616 C 341.563 13.336,349.028 13.200,364.224 13.200 L 386.800 13.200 386.800 68.800 M31.606 151.262 C 46.267 158.393,59.203 173.459,64.173 189.190 C 65.670 193.931,66.311 193.600,55.627 193.600 C 45.218 193.600,45.882 193.821,45.428 190.200 C 44.457 182.444,41.838 173.842,38.116 166.183 C 36.180 162.197,33.272 157.311,32.100 156.071 C 31.825 155.781,31.600 155.389,31.600 155.200 C 31.600 155.011,31.372 154.619,31.094 154.329 C 30.190 153.384,28.000 150.491,28.000 150.242 C 28.000 149.733,29.104 150.045,31.606 151.262 M372.800 150.367 C 372.800 150.568,372.665 150.793,372.500 150.867 C 370.379 151.809,361.571 166.207,359.203 172.600 C 359.040 173.040,358.721 173.850,358.494 174.400 C 357.750 176.199,356.748 179.520,356.018 182.600 C 355.083 186.546,354.842 187.833,354.623 190.066 C 354.247 193.906,355.098 193.600,344.791 193.600 C 338.043 193.600,335.625 193.475,335.506 193.119 C 335.115 191.944,339.299 181.797,342.029 177.305 C 342.893 175.882,343.600 174.618,343.600 174.496 C 343.600 174.374,344.365 173.271,345.300 172.046 C 346.235 170.821,347.270 169.464,347.600 169.032 C 348.682 167.613,352.567 163.437,354.200 161.937 C 358.176 158.285,359.206 157.452,362.400 155.298 C 368.259 151.347,372.800 149.194,372.800 150.367 M16.242 156.515 C 18.873 159.357,20.041 160.736,21.215 162.390 C 21.757 163.154,22.425 164.021,22.700 164.318 C 22.975 164.614,23.200 165.011,23.200 165.200 C 23.200 165.389,23.425 165.788,23.700 166.087 C 25.715 168.279,30.239 178.806,31.226 183.600 C 32.263 188.637,32.845 192.506,32.644 193.029 C 32.454 193.524,30.955 193.598,22.910 193.507 L 13.400 193.400 13.296 173.900 C 13.179 151.924,12.995 153.008,16.242 156.515 M386.704 173.900 L 386.600 193.400 377.090 193.507 C 366.102 193.631,366.911 194.007,367.770 189.173 C 369.627 178.719,373.306 170.327,379.770 161.800 C 382.453 158.261,385.950 154.400,386.471 154.400 C 386.656 154.400,386.761 163.175,386.704 173.900 M80.000 219.600 C 80.000 219.820,79.460 220.000,78.800 220.000 C 78.140 220.000,77.600 220.180,77.600 220.400 C 77.600 220.620,77.190 220.800,76.688 220.800 C 76.187 220.800,75.517 221.160,75.200 221.600 C 74.883 222.040,74.388 222.400,74.101 222.400 C 73.539 222.400,70.000 225.767,70.000 226.301 C 70.000 226.478,69.640 226.883,69.200 227.200 C 68.760 227.517,68.400 228.007,68.400 228.288 C 68.400 228.570,68.220 228.800,68.000 228.800 C 67.780 228.800,67.600 229.160,67.600 229.600 C 67.600 230.040,67.420 230.400,67.200 230.400 C 66.980 230.400,66.800 231.030,66.800 231.800 C 66.800 232.570,66.620 233.200,66.400 233.200 C 66.139 233.200,66.000 240.000,66.000 252.800 L 66.000 272.400 57.000 272.400 C 51.267 272.400,48.000 272.545,48.000 272.800 C 48.000 273.020,47.100 273.200,46.000 273.200 C 44.900 273.200,44.000 273.380,44.000 273.600 C 44.000 273.820,43.550 274.000,43.000 274.000 C 42.450 274.000,42.000 274.158,42.000 274.351 C 42.000 274.545,41.423 274.942,40.717 275.234 C 39.241 275.846,35.600 279.408,35.600 280.241 C 35.600 280.548,35.420 280.800,35.200 280.800 C 34.980 280.800,34.800 281.160,34.800 281.600 C 34.800 282.040,34.620 282.400,34.400 282.400 C 34.180 282.400,34.000 282.760,34.000 283.200 C 34.000 283.640,33.820 284.000,33.600 284.000 C 33.380 284.000,33.200 284.799,33.200 285.776 C 33.200 286.753,33.020 287.664,32.800 287.800 C 32.542 287.959,32.400 294.804,32.400 307.024 L 32.400 326.000 22.024 326.000 C 15.537 326.000,11.555 326.150,11.400 326.400 C 11.264 326.620,10.713 326.800,10.176 326.800 C 9.639 326.800,9.200 326.980,9.200 327.200 C 9.200 327.420,8.948 327.600,8.641 327.600 C 7.864 327.600,2.000 333.403,2.000 334.173 C 2.000 334.518,1.820 334.800,1.600 334.800 C 1.380 334.800,1.200 335.145,1.200 335.567 C 1.200 335.988,0.975 336.408,0.700 336.500 C 0.307 336.631,0.176 343.437,0.086 368.333 L -0.028 400.000 200.000 400.000 L 400.028 400.000 399.914 368.333 C 399.824 343.437,399.693 336.631,399.300 336.500 C 399.025 336.408,398.800 335.988,398.800 335.567 C 398.800 335.145,398.620 334.800,398.400 334.800 C 398.180 334.800,398.000 334.527,398.000 334.193 C 398.000 333.036,393.022 328.547,390.296 327.246 L 387.686 326.000 377.643 326.000 L 367.600 326.000 367.600 307.024 C 367.600 294.804,367.458 287.959,367.200 287.800 C 366.980 287.664,366.800 286.753,366.800 285.776 C 366.800 284.799,366.620 284.000,366.400 284.000 C 366.180 284.000,366.000 283.640,366.000 283.200 C 366.000 282.760,365.820 282.400,365.600 282.400 C 365.380 282.400,365.200 282.040,365.200 281.600 C 365.200 281.160,365.020 280.800,364.800 280.800 C 364.580 280.800,364.400 280.548,364.400 280.241 C 364.400 279.408,360.759 275.846,359.283 275.234 C 358.577 274.942,358.000 274.545,358.000 274.351 C 358.000 274.158,357.550 274.000,357.000 274.000 C 356.450 274.000,356.000 273.820,356.000 273.600 C 356.000 273.380,355.100 273.200,354.000 273.200 C 352.900 273.200,352.000 273.020,352.000 272.800 C 352.000 272.545,348.733 272.400,343.000 272.400 L 334.000 272.400 334.000 252.800 C 334.000 240.000,333.861 233.200,333.600 233.200 C 333.380 233.200,333.200 232.480,333.200 231.600 C 333.200 230.720,333.020 230.000,332.800 230.000 C 332.580 230.000,332.400 229.640,332.400 229.200 C 332.400 228.760,332.220 228.400,332.000 228.400 C 331.780 228.400,331.600 228.164,331.600 227.875 C 331.600 227.587,331.240 226.964,330.800 226.492 C 330.360 226.020,330.000 225.528,330.000 225.399 C 330.000 224.939,328.028 223.200,327.506 223.200 C 327.215 223.200,326.717 222.840,326.400 222.400 C 326.083 221.960,325.593 221.600,325.312 221.600 C 325.030 221.600,324.800 221.420,324.800 221.200 C 324.800 220.980,324.451 220.800,324.024 220.800 C 323.597 220.800,323.136 220.620,323.000 220.400 C 322.864 220.180,322.133 220.000,321.376 220.000 C 320.619 220.000,320.000 219.820,320.000 219.600 C 320.000 219.338,311.875 219.200,296.424 219.200 C 281.137 219.200,272.760 219.341,272.600 219.600 C 272.464 219.820,271.823 220.000,271.176 220.000 C 270.529 220.000,270.000 220.180,270.000 220.400 C 270.000 220.620,269.764 220.800,269.475 220.800 C 269.187 220.800,268.564 221.160,268.092 221.600 C 267.620 222.040,267.038 222.400,266.800 222.400 C 266.562 222.400,265.980 222.040,265.508 221.600 C 265.036 221.160,264.233 220.800,263.725 220.800 C 263.216 220.800,262.800 220.620,262.800 220.400 C 262.800 220.180,262.181 220.000,261.424 220.000 C 260.667 220.000,259.936 219.820,259.800 219.600 C 259.639 219.340,250.329 219.200,233.176 219.200 C 215.859 219.200,206.800 219.337,206.800 219.600 C 206.800 219.820,206.260 220.000,205.600 220.000 C 204.940 220.000,204.400 220.180,204.400 220.400 C 204.400 220.620,204.040 220.800,203.600 220.800 C 203.160 220.800,202.800 220.980,202.800 221.200 C 202.800 221.420,202.506 221.600,202.147 221.600 C 201.788 221.600,201.170 221.973,200.774 222.430 L 200.055 223.259 198.768 222.030 C 198.060 221.353,197.159 220.800,196.764 220.800 C 196.370 220.800,195.936 220.620,195.800 220.400 C 195.664 220.180,195.023 220.000,194.376 220.000 C 193.729 220.000,193.200 219.820,193.200 219.600 C 193.200 219.337,184.133 219.200,166.800 219.200 C 149.467 219.200,140.400 219.337,140.400 219.600 C 140.400 219.820,139.781 220.000,139.024 220.000 C 138.267 220.000,137.536 220.180,137.400 220.400 C 137.264 220.620,136.843 220.800,136.465 220.800 C 136.086 220.800,135.517 221.160,135.200 221.600 C 134.604 222.426,133.200 222.707,133.200 222.000 C 133.200 221.780,132.880 221.600,132.488 221.600 C 132.097 221.600,131.517 221.240,131.200 220.800 C 130.798 220.243,130.165 220.000,129.112 220.000 C 128.280 220.000,127.600 219.820,127.600 219.600 C 127.600 219.338,119.400 219.200,103.800 219.200 C 88.200 219.200,80.000 219.338,80.000 219.600 M125.037 233.771 C 126.728 234.955,126.840 236.399,126.717 255.400 L 126.600 273.400 117.000 273.625 C 106.591 273.868,104.645 274.189,101.859 276.122 L 100.718 276.913 98.757 275.854 C 95.031 273.841,93.829 273.612,86.980 273.606 C 82.527 273.602,80.413 273.453,80.080 273.120 C 78.414 271.454,79.670 235.587,81.457 233.800 C 82.336 232.921,123.785 232.894,125.037 233.771 M191.560 233.780 C 194.080 235.083,194.018 234.524,193.904 254.892 L 193.800 273.400 183.800 273.623 C 173.128 273.860,172.049 274.035,169.155 275.996 C 167.027 277.438,166.394 277.477,164.931 276.256 C 162.256 274.024,159.794 273.600,149.516 273.600 C 141.286 273.600,140.055 273.519,139.843 272.967 C 139.709 272.619,139.600 264.548,139.600 255.030 L 139.600 237.726 140.531 235.963 C 141.042 234.993,141.897 233.978,142.431 233.706 C 143.975 232.919,190.030 232.988,191.560 233.780 M258.209 233.831 C 260.818 235.069,260.820 235.086,260.704 255.269 L 260.600 273.400 250.600 273.613 C 240.005 273.839,239.501 273.921,235.642 276.042 C 233.366 277.294,233.239 277.317,232.264 276.679 C 228.049 273.917,227.866 273.881,216.600 273.626 L 206.600 273.400 206.600 254.929 C 206.600 234.492,206.524 235.101,209.239 233.706 C 210.852 232.877,256.443 232.993,258.209 233.831 M318.312 233.537 C 320.404 234.864,321.782 272.584,319.767 273.357 C 319.419 273.491,316.368 273.600,312.986 273.600 C 309.363 273.600,306.378 273.785,305.719 274.050 C 303.418 274.975,302.570 275.392,301.454 276.146 L 300.308 276.920 298.165 275.835 C 294.443 273.951,293.756 273.848,283.400 273.620 L 273.400 273.400 273.289 255.400 C 273.171 236.247,273.158 236.489,274.386 234.500 L 275.188 233.200 296.494 233.206 C 308.212 233.209,318.031 233.359,318.312 233.537 M92.012 287.613 C 93.587 289.299,93.657 290.326,93.519 309.800 L 93.400 326.600 83.800 326.834 C 73.869 327.077,73.055 327.203,69.389 329.059 L 67.200 330.167 64.900 329.032 C 61.255 327.234,60.586 327.107,53.400 326.847 L 46.600 326.600 46.600 308.400 C 46.600 289.029,46.666 288.299,48.544 286.984 C 49.249 286.490,52.583 286.400,70.129 286.400 L 90.879 286.400 92.012 287.613 M157.713 286.945 C 160.750 288.230,160.586 287.081,160.715 308.042 L 160.830 326.800 152.035 326.800 C 141.265 326.800,139.209 327.170,134.727 329.914 L 133.400 330.726 130.903 329.209 C 127.614 327.210,127.362 327.170,116.200 326.864 L 106.600 326.600 106.600 308.200 C 106.600 287.702,106.535 288.202,109.381 286.962 C 111.195 286.172,155.850 286.156,157.713 286.945 M225.490 287.520 C 227.579 289.010,227.648 289.733,227.518 309.000 L 227.400 326.600 217.600 326.845 C 206.258 327.128,204.772 327.422,201.139 330.108 L 200.078 330.892 198.339 329.696 C 194.884 327.319,193.507 327.061,183.000 326.820 L 173.400 326.600 173.294 308.600 C 173.184 289.804,173.228 289.250,174.932 287.679 C 176.256 286.460,175.879 286.477,200.800 286.540 L 224.200 286.600 225.490 287.520 M292.038 287.306 C 293.977 288.623,294.000 288.867,294.000 308.388 L 294.000 326.738 284.100 326.902 C 273.380 327.080,272.691 327.194,269.006 329.413 C 266.645 330.835,266.644 330.835,265.622 330.080 C 264.323 329.119,262.195 328.017,260.623 327.490 C 259.951 327.265,254.990 326.972,249.600 326.840 L 239.800 326.600 239.696 309.259 C 239.574 289.009,239.837 287.377,243.331 286.672 C 246.406 286.052,291.047 286.632,292.038 287.306 M352.012 287.613 C 353.587 289.299,353.657 290.326,353.519 309.800 L 353.400 326.600 346.800 326.845 C 339.503 327.116,339.172 327.177,335.944 328.839 C 333.187 330.258,333.394 330.258,330.318 328.838 C 326.528 327.088,326.505 327.085,316.200 326.834 L 306.600 326.600 306.600 308.386 C 306.600 288.895,306.768 287.195,308.752 286.666 C 309.108 286.571,318.733 286.472,330.140 286.446 L 350.879 286.400 352.012 287.613 M58.568 340.603 C 60.351 342.527,60.434 343.728,60.313 365.800 L 60.200 386.600 36.700 386.703 L 13.200 386.806 13.200 365.252 C 13.200 347.091,13.294 343.474,13.794 342.276 C 14.964 339.477,13.898 339.600,36.908 339.600 L 57.638 339.600 58.568 340.603 M124.683 340.382 C 127.938 341.859,127.970 342.396,126.941 378.103 L 126.691 386.806 100.045 386.703 L 73.400 386.600 73.300 365.000 C 73.187 340.791,73.107 341.498,76.108 340.193 C 78.403 339.195,122.447 339.367,124.683 340.382 M190.946 340.152 C 191.672 340.455,192.680 341.220,193.186 341.852 L 194.106 343.000 193.869 364.565 C 193.738 376.425,193.479 386.281,193.293 386.467 C 193.106 386.654,180.995 386.759,166.377 386.703 L 139.800 386.600 139.682 366.000 C 139.545 341.957,139.581 341.670,143.000 340.161 C 144.799 339.367,189.046 339.358,190.946 340.152 M257.713 340.145 C 260.799 341.451,260.617 339.846,260.460 364.344 C 260.383 376.365,260.193 386.336,260.037 386.503 C 259.882 386.669,247.795 386.759,233.177 386.703 L 206.600 386.600 206.600 364.784 L 206.600 342.967 207.600 341.737 C 208.150 341.060,209.050 340.321,209.600 340.095 C 211.258 339.415,256.098 339.461,257.713 340.145 M324.683 340.382 C 327.938 341.859,327.970 342.396,326.941 378.103 L 326.691 386.806 300.045 386.703 L 273.400 386.600 273.300 365.000 C 273.187 340.791,273.107 341.498,276.108 340.193 C 278.403 339.195,322.447 339.367,324.683 340.382 M384.717 340.227 C 386.768 341.664,386.800 342.047,386.800 365.252 L 386.800 386.806 363.300 386.703 L 339.800 386.600 339.679 366.200 C 339.549 344.411,339.682 342.492,341.448 340.586 L 342.362 339.600 363.092 339.600 C 381.265 339.600,383.932 339.677,384.717 340.227 " stroke="none" fill="#040404" fill-rule="evenodd"></path><path id="path4" d="M92.302 14.200 C 92.407 14.750,92.562 15.200,92.647 15.200 C 92.731 15.200,92.800 14.750,92.800 14.200 C 92.800 13.650,92.645 13.200,92.455 13.200 C 92.266 13.200,92.197 13.650,92.302 14.200 M105.415 13.700 C 105.327 13.975,105.153 15.280,105.028 16.600 C 104.903 17.920,104.626 20.350,104.412 22.000 C 104.198 23.650,103.836 26.440,103.608 28.200 C 102.880 33.809,101.749 41.065,101.239 43.400 C 101.047 44.280,100.673 45.990,100.408 47.200 C 99.778 50.085,97.761 57.192,96.745 60.111 C 96.302 61.381,96.017 62.641,96.111 62.911 C 96.360 63.623,99.542 53.503,100.799 48.000 C 102.177 41.971,103.307 35.561,104.008 29.800 C 104.223 28.040,104.573 25.250,104.787 23.600 C 105.001 21.950,105.357 19.083,105.578 17.229 C 105.804 15.344,106.206 13.716,106.491 13.536 C 106.860 13.301,106.804 13.211,106.287 13.206 C 105.896 13.203,105.503 13.425,105.415 13.700 M294.008 14.679 C 294.192 15.516,294.545 17.820,294.793 19.800 C 296.613 34.337,297.008 37.063,298.038 42.200 C 298.798 45.990,299.965 51.045,300.392 52.400 C 300.565 52.950,300.936 54.210,301.215 55.200 C 310.496 88.079,333.013 119.092,360.900 137.403 C 363.948 139.405,363.968 139.328,359.838 141.563 C 349.489 147.163,336.898 159.314,330.991 169.400 C 330.347 170.500,329.505 171.940,329.121 172.600 C 328.390 173.855,327.675 175.323,326.250 178.493 L 325.400 180.386 200.000 180.375 L 74.600 180.363 72.511 176.026 C 65.693 161.870,53.767 149.197,40.000 141.480 C 38.570 140.679,37.154 139.859,36.853 139.659 C 36.442 139.385,36.941 138.868,38.853 137.585 C 55.753 126.246,71.777 109.655,82.105 92.802 C 85.918 86.579,88.159 82.390,91.326 75.565 C 93.475 70.933,93.793 70.000,93.227 70.000 C 92.992 70.000,92.800 70.272,92.800 70.605 C 92.800 70.938,92.643 71.523,92.450 71.905 C 90.952 74.880,90.400 76.153,90.400 76.638 C 90.400 76.947,90.220 77.200,90.000 77.200 C 89.780 77.200,89.600 77.452,89.600 77.759 C 89.600 78.067,89.060 79.327,88.400 80.559 C 87.740 81.792,86.646 83.835,85.969 85.100 C 84.127 88.541,80.296 94.926,79.712 95.529 C 79.431 95.819,79.200 96.196,79.200 96.366 C 79.200 96.536,78.750 97.199,78.200 97.838 C 77.651 98.477,77.201 99.133,77.200 99.295 C 77.200 99.564,76.465 100.556,75.387 101.745 C 75.160 101.995,74.538 102.830,74.006 103.600 C 73.474 104.370,72.935 105.090,72.809 105.200 C 72.683 105.310,71.955 106.210,71.192 107.200 C 67.402 112.115,58.732 121.218,54.173 125.066 C 53.088 125.982,51.660 127.206,51.000 127.786 C 50.340 128.366,48.450 129.860,46.800 131.106 C 45.150 132.353,43.595 133.559,43.344 133.786 C 43.093 134.014,41.338 135.243,39.444 136.519 C 35.564 139.132,35.386 139.512,37.500 140.686 C 38.325 141.145,39.696 141.907,40.547 142.380 C 42.248 143.325,48.081 147.189,48.400 147.582 C 48.510 147.718,49.950 148.927,51.600 150.269 C 55.745 153.641,61.728 159.935,64.653 164.000 C 67.597 168.091,71.600 174.689,71.600 175.451 C 71.600 175.753,71.780 176.000,72.000 176.000 C 72.220 176.000,72.400 176.253,72.400 176.562 C 72.400 177.247,74.045 180.486,74.600 180.894 C 75.123 181.278,324.877 181.278,325.400 180.894 C 325.955 180.486,327.600 177.247,327.600 176.562 C 327.600 176.253,327.780 176.000,328.000 176.000 C 328.220 176.000,328.400 175.640,328.400 175.200 C 328.400 174.760,328.580 174.400,328.800 174.400 C 329.020 174.400,329.200 174.215,329.200 173.988 C 329.200 172.259,337.020 161.410,341.985 156.251 C 346.470 151.591,357.999 142.400,359.361 142.400 C 359.469 142.400,360.657 141.756,362.001 140.968 C 364.876 139.283,364.941 139.448,360.125 136.203 C 358.186 134.897,356.510 133.723,356.400 133.594 C 356.290 133.465,354.850 132.343,353.200 131.100 C 351.550 129.857,349.660 128.366,349.000 127.786 C 348.340 127.206,346.914 125.982,345.831 125.066 C 341.418 121.333,332.391 111.870,328.788 107.200 C 328.025 106.210,327.310 105.310,327.199 105.200 C 325.673 103.682,316.800 90.476,316.800 89.724 C 316.800 89.625,316.298 88.792,315.684 87.872 C 315.071 86.952,314.128 85.300,313.590 84.200 C 313.051 83.100,312.518 82.110,312.405 82.000 C 311.946 81.553,310.400 78.285,310.400 77.762 C 310.400 77.453,310.220 77.200,310.000 77.200 C 309.780 77.200,309.600 76.958,309.600 76.661 C 309.600 76.365,309.350 75.600,309.044 74.961 C 308.264 73.335,306.738 69.757,305.946 67.700 C 305.756 67.205,305.427 66.395,305.216 65.900 C 303.879 62.767,300.527 51.128,299.197 45.000 C 299.006 44.120,298.736 42.950,298.598 42.400 C 298.460 41.850,298.172 40.230,297.958 38.800 C 297.744 37.370,297.407 35.120,297.209 33.800 C 296.586 29.647,295.428 20.772,294.891 16.031 C 294.731 14.619,294.392 13.394,294.137 13.310 C 293.803 13.201,293.767 13.581,294.008 14.679 M58.493 14.800 C 58.493 15.570,58.575 15.885,58.676 15.500 C 58.776 15.115,58.776 14.485,58.676 14.100 C 58.575 13.715,58.493 14.030,58.493 14.800 M307.693 17.200 C 307.693 17.970,307.775 18.285,307.876 17.900 C 307.976 17.515,307.976 16.885,307.876 16.500 C 307.775 16.115,307.693 16.430,307.693 17.200 M92.093 17.600 C 92.093 18.370,92.175 18.685,92.276 18.300 C 92.376 17.915,92.376 17.285,92.276 16.900 C 92.175 16.515,92.093 16.830,92.093 17.600 M328.093 18.400 C 328.093 19.170,328.175 19.485,328.276 19.100 C 328.376 18.715,328.376 18.085,328.276 17.700 C 328.175 17.315,328.093 17.630,328.093 18.400 M342.093 20.800 C 342.093 21.570,342.175 21.885,342.276 21.500 C 342.376 21.115,342.376 20.485,342.276 20.100 C 342.175 19.715,342.093 20.030,342.093 20.800 M328.893 23.600 C 328.893 24.370,328.975 24.685,329.076 24.300 C 329.176 23.915,329.176 23.285,329.076 22.900 C 328.975 22.515,328.893 22.830,328.893 23.600 M342.893 26.800 C 342.893 27.570,342.975 27.885,343.076 27.500 C 343.176 27.115,343.176 26.485,343.076 26.100 C 342.975 25.715,342.893 26.030,342.893 26.800 M309.293 28.400 C 309.293 29.170,309.375 29.485,309.476 29.100 C 309.576 28.715,309.576 28.085,309.476 27.700 C 309.375 27.315,309.293 27.630,309.293 28.400 M95.467 63.867 C 95.320 64.013,95.200 64.375,95.200 64.671 C 95.200 64.967,94.823 66.011,94.362 66.991 C 93.901 67.971,93.594 68.982,93.679 69.236 C 93.764 69.491,94.350 68.416,94.981 66.847 C 96.014 64.281,96.201 63.132,95.467 63.867 M79.265 69.017 C 78.595 70.488,78.723 70.802,79.447 69.465 C 79.786 68.840,79.988 68.254,79.896 68.163 C 79.805 68.071,79.521 68.456,79.265 69.017 M329.560 85.800 C 330.234 87.105,330.788 87.828,330.785 87.400 C 330.783 87.180,330.414 86.550,329.964 86.000 C 329.421 85.336,329.285 85.269,329.560 85.800 M337.954 97.536 C 338.399 98.160,339.079 98.925,339.465 99.236 C 339.852 99.546,339.560 99.035,338.817 98.100 C 337.291 96.180,336.725 95.810,337.954 97.536 M32.953 98.900 C 31.576 101.236,31.486 101.435,32.187 100.600 C 33.000 99.632,33.700 98.400,33.438 98.400 C 33.333 98.400,33.115 98.625,32.953 98.900 M58.401 101.798 C 57.886 102.348,57.539 102.864,57.632 102.946 C 57.724 103.028,58.219 102.578,58.730 101.947 C 59.876 100.535,59.674 100.444,58.401 101.798 M341.200 101.325 C 341.200 101.394,341.785 101.979,342.500 102.625 L 343.800 103.800 342.625 102.500 C 341.530 101.288,341.200 101.016,341.200 101.325 M369.149 103.000 C 369.365 103.440,369.834 104.160,370.193 104.600 L 370.844 105.400 370.451 104.600 C 370.235 104.160,369.766 103.440,369.407 103.000 L 368.756 102.200 369.149 103.000 M53.787 106.900 L 51.400 109.400 53.900 107.013 C 56.222 104.795,56.583 104.400,56.287 104.400 C 56.226 104.400,55.101 105.525,53.787 106.900 M345.800 106.400 C 346.659 107.280,347.452 108.000,347.562 108.000 C 347.672 108.000,347.059 107.280,346.200 106.400 C 345.341 105.520,344.548 104.800,344.438 104.800 C 344.328 104.800,344.941 105.520,345.800 106.400 M358.000 109.800 C 358.681 110.790,359.328 111.600,359.438 111.600 C 359.548 111.600,359.081 110.790,358.400 109.800 C 357.719 108.810,357.072 108.000,356.962 108.000 C 356.852 108.000,357.319 108.810,358.000 109.800 M48.587 112.100 L 46.200 114.600 48.700 112.213 C 51.022 109.995,51.383 109.600,51.087 109.600 C 51.026 109.600,49.901 110.725,48.587 112.100 M352.600 113.200 C 353.459 114.080,354.252 114.800,354.362 114.800 C 354.472 114.800,353.859 114.080,353.000 113.200 C 352.141 112.320,351.348 111.600,351.238 111.600 C 351.128 111.600,351.741 112.320,352.600 113.200 M378.000 115.325 C 378.000 115.394,378.585 115.979,379.300 116.625 L 380.600 117.800 379.425 116.500 C 378.330 115.288,378.000 115.016,378.000 115.325 M19.775 117.300 L 18.600 118.600 19.900 117.425 C 20.615 116.779,21.200 116.194,21.200 116.125 C 21.200 115.816,20.870 116.088,19.775 117.300 M381.200 118.925 C 381.200 118.994,381.785 119.579,382.500 120.225 L 383.800 121.400 382.625 120.100 C 381.530 118.888,381.200 118.616,381.200 118.925 M14.278 123.413 C 13.660 123.956,13.314 124.400,13.508 124.400 C 13.702 124.400,14.283 123.950,14.800 123.400 C 15.995 122.128,15.731 122.134,14.278 123.413 M30.262 125.131 C 29.483 125.992,29.384 126.946,30.100 126.683 C 30.375 126.583,30.549 126.279,30.486 126.008 C 30.423 125.737,30.580 125.265,30.835 124.958 C 31.520 124.132,31.032 124.280,30.262 125.131 M37.174 154.724 C 37.709 155.159,38.699 155.819,39.374 156.191 L 40.600 156.867 39.626 156.076 C 39.091 155.641,38.101 154.981,37.426 154.609 L 36.200 153.933 37.174 154.724 M15.800 156.400 C 16.883 157.500,17.860 158.400,17.970 158.400 C 18.080 158.400,17.283 157.500,16.200 156.400 C 15.117 155.300,14.140 154.400,14.030 154.400 C 13.920 154.400,14.717 155.300,15.800 156.400 M384.383 156.300 L 382.600 158.200 384.593 156.400 C 385.688 155.410,386.663 154.555,386.759 154.500 C 386.855 154.445,386.761 154.400,386.550 154.400 C 386.339 154.400,385.364 155.255,384.383 156.300 M47.600 163.000 C 48.795 164.210,49.863 165.200,49.973 165.200 C 50.083 165.200,49.195 164.210,48.000 163.000 C 46.805 161.790,45.737 160.800,45.627 160.800 C 45.517 160.800,46.405 161.790,47.600 163.000 M349.781 166.500 L 348.200 168.200 349.900 166.619 C 350.835 165.749,351.600 164.984,351.600 164.919 C 351.600 164.616,351.252 164.919,349.781 166.500 M44.468 184.600 C 44.462 185.040,44.611 185.760,44.800 186.200 C 45.238 187.219,45.238 186.168,44.800 184.800 C 44.543 183.996,44.477 183.957,44.468 184.600 M367.361 192.400 L 367.400 193.400 376.772 193.508 C 381.927 193.567,386.284 193.477,386.453 193.308 C 386.623 193.138,382.463 193.051,377.209 193.114 L 367.656 193.227 367.489 192.314 C 367.340 191.493,367.327 191.502,367.361 192.400 M335.502 192.100 C 334.977 193.528,335.473 193.602,344.933 193.511 L 354.200 193.423 345.000 193.211 C 336.526 193.017,335.809 192.945,335.918 192.300 C 336.053 191.494,335.774 191.360,335.502 192.100 M64.800 192.547 C 64.800 193.172,64.031 193.219,55.438 193.114 C 50.289 193.051,46.159 193.135,46.261 193.300 C 46.667 193.954,64.807 193.648,65.062 192.983 C 65.192 192.643,65.187 192.253,65.049 192.116 C 64.912 191.979,64.800 192.173,64.800 192.547 M13.462 193.300 C 13.564 193.465,17.856 193.600,23.000 193.600 C 28.144 193.600,32.436 193.465,32.538 193.300 C 32.640 193.135,28.348 193.000,23.000 193.000 C 17.652 193.000,13.360 193.135,13.462 193.300 M92.500 233.500 C 98.385 233.562,108.015 233.562,113.900 233.500 C 119.785 233.437,114.970 233.386,103.200 233.386 C 91.430 233.386,86.615 233.437,92.500 233.500 M155.129 233.500 C 161.799 233.561,172.599 233.561,179.129 233.500 C 185.658 233.438,180.200 233.388,167.000 233.388 C 153.800 233.388,148.458 233.438,155.129 233.500 M221.700 233.500 C 228.245 233.561,238.955 233.561,245.500 233.500 C 252.045 233.438,246.690 233.388,233.600 233.388 C 220.510 233.388,215.155 233.438,221.700 233.500 M274.749 233.900 C 274.263 234.519,274.273 234.543,274.837 234.104 C 275.321 233.726,280.572 233.582,296.837 233.500 L 318.200 233.393 296.749 233.296 C 276.728 233.206,275.261 233.247,274.749 233.900 M273.394 254.900 L 273.400 273.400 281.900 273.412 L 290.401 273.424 282.004 273.304 L 273.608 273.184 273.498 254.792 L 273.388 236.400 273.394 254.900 M139.784 255.200 C 139.784 264.990,139.836 268.995,139.900 264.100 C 139.963 259.205,139.963 251.195,139.900 246.300 C 139.836 241.405,139.784 245.410,139.784 255.200 M206.594 255.500 L 206.600 273.400 215.300 273.412 L 224.000 273.424 215.404 273.304 L 206.808 273.184 206.698 255.392 L 206.588 237.600 206.594 255.500 M320.184 255.400 C 320.184 265.300,320.236 269.293,320.300 264.273 C 320.363 259.253,320.363 251.153,320.300 246.273 C 320.236 241.393,320.184 245.500,320.184 255.400 M79.784 255.400 C 79.784 265.080,79.836 268.983,79.900 264.073 C 79.963 259.163,79.963 251.243,79.900 246.473 C 79.836 241.703,79.784 245.720,79.784 255.400 M118.400 273.200 L 110.200 273.425 118.276 273.513 C 123.326 273.567,126.445 273.450,126.600 273.200 C 126.736 272.980,126.792 272.839,126.724 272.887 C 126.656 272.936,122.910 273.076,118.400 273.200 M83.318 273.498 C 85.033 273.573,87.733 273.572,89.318 273.497 C 90.903 273.421,89.500 273.359,86.200 273.360 C 82.900 273.361,81.603 273.422,83.318 273.498 M144.078 273.498 C 146.431 273.569,150.391 273.569,152.878 273.499 C 155.365 273.429,153.440 273.371,148.600 273.370 C 143.760 273.370,141.725 273.428,144.078 273.498 M180.900 273.498 C 183.265 273.569,187.135 273.569,189.500 273.498 C 191.865 273.428,189.930 273.370,185.200 273.370 C 180.470 273.370,178.535 273.428,180.900 273.498 M247.700 273.498 C 250.065 273.569,253.935 273.569,256.300 273.498 C 258.665 273.428,256.730 273.370,252.000 273.370 C 247.270 273.370,245.335 273.428,247.700 273.498 M311.282 273.496 C 312.758 273.573,315.278 273.573,316.882 273.497 C 318.487 273.421,317.280 273.358,314.200 273.358 C 311.120 273.357,309.807 273.419,311.282 273.496 M59.500 286.700 C 65.275 286.762,74.725 286.762,80.500 286.700 C 86.275 286.637,81.550 286.586,70.000 286.586 C 58.450 286.586,53.725 286.637,59.500 286.700 M121.900 286.700 C 128.335 286.762,138.865 286.762,145.300 286.700 C 151.735 286.638,146.470 286.587,133.600 286.587 C 120.730 286.587,115.465 286.638,121.900 286.700 M188.729 286.700 C 195.179 286.762,205.619 286.762,211.929 286.700 C 218.238 286.638,212.960 286.587,200.200 286.587 C 187.440 286.587,182.278 286.638,188.729 286.700 M255.529 286.700 C 261.979 286.762,272.419 286.762,278.729 286.700 C 285.038 286.638,279.760 286.587,267.000 286.587 C 254.240 286.587,249.078 286.638,255.529 286.700 M319.500 286.700 C 325.275 286.762,334.725 286.762,340.500 286.700 C 346.275 286.637,341.550 286.586,330.000 286.586 C 318.450 286.586,313.725 286.637,319.500 286.700 M173.384 308.200 C 173.384 318.320,173.436 322.403,173.500 317.273 C 173.563 312.142,173.563 303.862,173.500 298.873 C 173.436 293.883,173.384 298.080,173.384 308.200 M227.384 308.400 C 227.384 318.410,227.436 322.505,227.500 317.500 C 227.563 312.495,227.563 304.305,227.500 299.300 C 227.436 294.295,227.384 298.390,227.384 308.400 M93.200 308.680 C 93.090 318.624,93.137 326.623,93.304 326.456 C 93.472 326.289,93.561 318.152,93.504 308.376 L 93.400 290.600 93.200 308.680 M106.489 308.476 C 106.440 318.308,106.535 326.436,106.700 326.539 C 106.973 326.707,106.967 313.361,106.688 297.000 C 106.628 293.480,106.539 298.644,106.489 308.476 M306.489 308.476 C 306.440 318.308,306.535 326.436,306.700 326.539 C 306.973 326.707,306.967 313.361,306.688 297.000 C 306.628 293.480,306.539 298.644,306.489 308.476 M353.200 308.680 C 353.090 318.624,353.137 326.623,353.304 326.456 C 353.472 326.289,353.561 318.152,353.504 308.376 L 353.400 290.600 353.200 308.680 M46.489 308.676 C 46.440 318.398,46.535 326.436,46.700 326.539 C 46.973 326.707,46.967 312.984,46.688 297.200 C 46.628 293.790,46.538 298.954,46.489 308.676 M239.794 308.767 C 239.799 324.216,239.878 326.555,240.400 326.697 C 240.840 326.817,240.868 326.767,240.504 326.509 C 240.126 326.241,239.982 322.002,239.898 308.579 L 239.787 291.000 239.794 308.767 M197.600 329.164 C 198.150 329.614,198.780 329.983,199.000 329.985 C 199.428 329.988,198.705 329.434,197.400 328.760 C 196.869 328.485,196.936 328.621,197.600 329.164 M26.300 339.900 C 32.075 339.962,41.525 339.962,47.300 339.900 C 53.075 339.837,48.350 339.786,36.800 339.786 C 25.250 339.786,20.525 339.837,26.300 339.900 M88.729 339.900 C 95.179 339.962,105.619 339.962,111.929 339.900 C 118.238 339.838,112.960 339.787,100.200 339.787 C 87.440 339.787,82.278 339.838,88.729 339.900 M155.529 339.900 C 161.979 339.962,172.419 339.962,178.729 339.900 C 185.038 339.838,179.760 339.787,167.000 339.787 C 154.240 339.787,149.078 339.838,155.529 339.900 M221.900 339.900 C 228.335 339.962,238.865 339.962,245.300 339.900 C 251.735 339.838,246.470 339.787,233.600 339.787 C 220.730 339.787,215.465 339.838,221.900 339.900 M288.729 339.900 C 295.179 339.962,305.619 339.962,311.929 339.900 C 318.238 339.838,312.960 339.787,300.200 339.787 C 287.440 339.787,282.278 339.838,288.729 339.900 M352.700 339.900 C 358.475 339.962,367.925 339.962,373.700 339.900 C 379.475 339.837,374.750 339.786,363.200 339.786 C 351.650 339.786,346.925 339.837,352.700 339.900 M258.265 340.774 C 258.961 341.198,259.720 341.873,259.953 342.273 C 260.185 342.673,260.381 342.791,260.388 342.536 C 260.403 341.974,258.128 339.999,257.469 340.001 C 257.211 340.002,257.569 340.350,258.265 340.774 M74.723 341.100 C 74.018 341.921,73.490 342.800,73.701 342.800 C 73.783 342.800,74.249 342.260,74.737 341.600 C 75.701 340.296,75.692 339.972,74.723 341.100 M274.723 341.100 C 274.018 341.921,273.490 342.800,273.701 342.800 C 273.783 342.800,274.249 342.260,274.737 341.600 C 275.701 340.296,275.692 339.972,274.723 341.100 M73.387 364.800 C 73.387 376.790,73.438 381.695,73.500 375.700 C 73.562 369.705,73.562 359.895,73.500 353.900 C 73.438 347.905,73.387 352.810,73.387 364.800 M273.387 364.800 C 273.387 376.790,273.438 381.695,273.500 375.700 C 273.562 369.705,273.562 359.895,273.500 353.900 C 273.438 347.905,273.387 352.810,273.387 364.800 M127.365 350.600 C 127.366 354.560,127.426 356.126,127.498 354.080 C 127.571 352.034,127.571 348.794,127.498 346.880 C 127.424 344.966,127.365 346.640,127.365 350.600 M327.365 350.600 C 327.366 354.560,327.426 356.126,327.498 354.080 C 327.571 352.034,327.571 348.794,327.498 346.880 C 327.424 344.966,327.365 346.640,327.365 350.600 M60.000 365.280 C 59.890 377.094,59.937 386.624,60.104 386.457 C 60.271 386.290,60.360 376.623,60.303 364.976 L 60.200 343.800 60.000 365.280 M139.691 365.276 C 139.641 376.868,139.735 386.436,139.900 386.538 C 140.173 386.707,140.168 371.376,139.890 351.800 C 139.830 347.620,139.741 353.684,139.691 365.276 M206.491 365.276 C 206.441 376.868,206.535 386.436,206.700 386.538 C 206.973 386.707,206.968 371.376,206.690 351.800 C 206.630 347.620,206.541 353.684,206.491 365.276 M339.691 365.276 C 339.641 376.868,339.735 386.436,339.900 386.538 C 340.173 386.707,340.168 371.376,339.890 351.800 C 339.830 347.620,339.741 353.684,339.691 365.276 M260.557 354.800 C 260.557 357.770,260.620 358.985,260.697 357.500 C 260.774 356.015,260.774 353.585,260.697 352.100 C 260.620 350.615,260.557 351.830,260.557 354.800 M193.775 362.800 C 193.775 368.630,193.831 371.015,193.899 368.100 C 193.967 365.185,193.967 360.415,193.899 357.500 C 193.831 354.585,193.775 356.970,193.775 362.800 M126.954 372.400 C 126.954 375.150,127.018 376.275,127.096 374.900 C 127.174 373.525,127.174 371.275,127.096 369.900 C 127.018 368.525,126.954 369.650,126.954 372.400 M326.954 372.400 C 326.954 375.150,327.018 376.275,327.096 374.900 C 327.174 373.525,327.174 371.275,327.096 369.900 C 327.018 368.525,326.954 369.650,326.954 372.400 M260.160 380.600 C 260.161 383.900,260.222 385.197,260.298 383.482 C 260.373 381.767,260.372 379.067,260.297 377.482 C 260.221 375.897,260.159 377.300,260.160 380.600 M193.168 385.300 C 193.049 386.160,193.110 386.650,193.312 386.448 C 193.505 386.255,193.598 385.581,193.519 384.949 C 193.387 383.891,193.359 383.919,193.168 385.300 " stroke="none" fill="#0d2c34" fill-rule="evenodd"></path></g></svg>