<?xml version="1.0" standalone="no"?>
<!DOCTYPE svg PUBLIC "-//W3C//DTD SVG 20010904//EN"
 "http://www.w3.org/TR/2001/REC-SVG-20010904/DTD/svg10.dtd">
<svg version="1.0" xmlns="http://www.w3.org/2000/svg"
 width="512.000000pt" height="512.000000pt" viewBox="0 0 512.000000 512.000000"
 preserveAspectRatio="xMidYMid meet">

<g transform="translate(0.000000,512.000000) scale(0.100000,-0.100000)"
fill="#000000" stroke="none">
<path d="M1 3903 c1 -1101 2 -1214 16 -1175 8 23 36 65 61 92 82 86 2333 2130
2364 2146 70 36 192 30 256 -14 56 -38 2364 -2145 2381 -2173 8 -13 20 -42 27
-64 10 -33 13 184 13 1183 l1 1222 -2560 0 -2560 0 1 -1217z m4529 764 c73
-48 70 -30 68 -554 l-3 -470 -560 509 c-308 280 -567 515 -575 523 -12 13 50
15 511 15 l526 0 33 -23z"/>
<path d="M0 1298 l0 -1298 2560 0 2560 0 -1 1298 c0 713 -4 1286 -8 1272 -24
-77 -80 -141 -151 -174 -40 -18 -69 -21 -257 -24 l-213 -4 0 -1061 c0 -1185 5
-1105 -69 -1154 l-34 -23 -677 0 -677 0 -34 23 c-72 48 -69 17 -69 745 l0 652
-370 0 -370 0 0 -652 c0 -728 3 -697 -69 -745 l-34 -23 -677 0 -677 0 -34 23
c-74 49 -69 -31 -69 1154 l0 1061 -212 4 c-137 3 -224 9 -243 17 -80 33 -132
88 -161 170 -11 30 -13 -188 -14 -1261z"/>
</g>
</svg>
