<?xml version="1.0" standalone="no"?>
<!DOCTYPE svg PUBLIC "-//W3C//DTD SVG 20010904//EN"
 "http://www.w3.org/TR/2001/REC-SVG-20010904/DTD/svg10.dtd">
<svg version="1.0" xmlns="http://www.w3.org/2000/svg"
 width="512.000000pt" height="512.000000pt" viewBox="0 0 512.000000 512.000000"
 preserveAspectRatio="xMidYMid meet">

<g transform="translate(0.000000,512.000000) scale(0.100000,-0.100000)"
fill="#000000" stroke="none">
<path d="M1 4613 c0 -323 4 -497 10 -477 17 58 71 126 126 156 131 73 294 29
365 -99 74 -132 29 -294 -102 -367 -48 -27 -65 -31 -130 -31 -65 0 -82 4 -130
31 -58 32 -112 99 -129 158 -6 19 -9 -235 -9 -674 0 -439 3 -693 9 -674 17 59
71 126 129 158 48 27 65 31 130 31 65 0 82 -4 130 -31 131 -73 176 -235 102
-367 -71 -128 -234 -172 -365 -99 -55 30 -109 98 -126 156 -6 19 -9 -235 -9
-674 0 -439 3 -693 9 -674 17 58 71 126 126 156 132 74 294 29 367 -102 27
-48 31 -65 31 -130 0 -65 -4 -82 -31 -130 -73 -131 -235 -176 -367 -102 -55
30 -109 98 -126 156 -6 20 -10 -154 -10 -476 l-1 -508 2560 0 2560 0 -1 513
c-1 340 -4 501 -10 479 -13 -44 -79 -108 -126 -121 -26 -8 -592 -11 -1808 -11
-1690 0 -1772 1 -1810 19 -68 30 -125 113 -125 181 0 68 57 151 125 181 38 18
120 19 1810 19 1216 0 1782 -3 1808 -11 47 -13 113 -77 126 -121 6 -22 9 215
9 682 0 467 -3 704 -9 682 -13 -44 -79 -108 -126 -121 -26 -8 -592 -11 -1808
-11 -1690 0 -1772 1 -1810 19 -68 30 -125 113 -125 181 0 68 57 151 125 181
38 18 120 19 1810 19 1216 0 1782 -3 1808 -11 47 -13 113 -77 126 -121 6 -22
9 215 9 682 0 467 -3 704 -9 682 -13 -44 -79 -108 -126 -121 -26 -8 -592 -11
-1808 -11 -1690 0 -1772 1 -1810 19 -68 30 -125 113 -125 181 0 68 57 151 125
181 38 18 120 19 1810 19 1216 0 1782 -3 1808 -11 47 -13 113 -77 126 -121 6
-22 9 139 10 480 l1 512 -2560 0 -2560 0 1 -507z"/>
</g>
</svg>
